<svg width="1440" height="619" viewBox="0 0 1440 619" fill="none" xmlns="http://www.w3.org/2000/svg">
<g filter="url(#filter0_d_60_2851)">
<rect width="1440" height="611" fill="#253D81"/>
</g>
<path fill-rule="evenodd" clip-rule="evenodd" d="M0 560L60 564.167C120 568.333 240 576.667 360 585C480 593.333 600 601.667 720 589.167C840 576.667 960 543.333 1080 526.667C1200 510 1320 510 1380 510H1440V610H1380C1320 610 1200 610 1080 610C960 610 840 610 720 610C600 610 480 610 360 610C240 610 120 610 60 610H0V560Z" fill="#FAFAFA"/>
<path d="M963.245 377H952.255C951.928 377 951.765 376.837 951.765 376.51V354.985C951.765 354.658 951.928 354.495 952.255 354.495H963.245C963.572 354.495 963.735 354.658 963.735 354.985V356.245C963.735 356.572 963.572 356.735 963.245 356.735H954.67C954.437 356.735 954.32 356.84 954.32 357.05V364.12C954.32 364.33 954.437 364.435 954.67 364.435H962.16C962.487 364.435 962.65 364.598 962.65 364.925V366.185C962.65 366.512 962.487 366.675 962.16 366.675H954.67C954.437 366.675 954.32 366.78 954.32 366.99V374.445C954.32 374.655 954.437 374.76 954.67 374.76H963.245C963.572 374.76 963.735 374.923 963.735 375.25V376.51C963.735 376.837 963.572 377 963.245 377ZM966.586 371.82V370.7C966.586 370.373 966.75 370.21 967.076 370.21H968.651C968.978 370.21 969.141 370.373 969.141 370.7V371.61C969.141 373.71 970.18 374.76 972.256 374.76H975.336C977.413 374.76 978.451 373.687 978.451 371.54V370.35C978.451 368.67 977.063 367.573 974.286 367.06C973.12 366.85 971.953 366.605 970.786 366.325C969.62 366.045 968.628 365.508 967.811 364.715C966.995 363.898 966.586 362.79 966.586 361.39V359.675C966.586 358.065 967.041 356.805 967.951 355.895C968.885 354.962 970.156 354.495 971.766 354.495H975.651C977.238 354.495 978.498 354.962 979.431 355.895C980.365 356.805 980.831 358.065 980.831 359.675V360.55C980.831 360.9 980.68 361.075 980.376 361.075H978.766C978.463 361.075 978.311 360.9 978.311 360.55V359.92C978.311 357.797 977.273 356.735 975.196 356.735H972.221C970.145 356.735 969.106 357.843 969.106 360.06V361.46C969.106 362.65 969.888 363.467 971.451 363.91C972.151 364.097 972.921 364.272 973.761 364.435C974.601 364.575 975.441 364.773 976.281 365.03C977.145 365.263 977.926 365.567 978.626 365.94C979.326 366.29 979.886 366.838 980.306 367.585C980.75 368.308 980.971 369.195 980.971 370.245V371.82C980.971 373.43 980.505 374.702 979.571 375.635C978.638 376.545 977.378 377 975.791 377H971.766C970.18 377 968.92 376.545 967.986 375.635C967.053 374.702 966.586 373.43 966.586 371.82ZM989.99 377H988.415C988.089 377 987.925 376.837 987.925 376.51V357.05C987.925 356.84 987.809 356.735 987.575 356.735H982.815C982.465 356.735 982.29 356.572 982.29 356.245V354.985C982.29 354.658 982.465 354.495 982.815 354.495H995.59C995.94 354.495 996.115 354.658 996.115 354.985V356.245C996.115 356.572 995.94 356.735 995.59 356.735H990.83C990.597 356.735 990.48 356.84 990.48 357.05V376.51C990.48 376.837 990.317 377 989.99 377ZM1009.65 354.495H1011.23C1011.55 354.495 1011.72 354.647 1011.72 354.95V371.82C1011.72 373.453 1011.26 374.725 1010.35 375.635C1009.44 376.545 1008.18 377 1006.57 377H1002.69C1001.08 377 999.805 376.545 998.872 375.635C997.962 374.725 997.507 373.453 997.507 371.82V354.985C997.507 354.658 997.67 354.495 997.997 354.495H999.572C999.899 354.495 1000.06 354.658 1000.06 354.985V371.715C1000.06 373.745 1001.03 374.76 1002.97 374.76H1006.26C1008.22 374.76 1009.2 373.745 1009.2 371.715V354.985C1009.2 354.658 1009.35 354.495 1009.65 354.495ZM1018.22 374.76H1024.1C1026.06 374.76 1027.04 373.745 1027.04 371.715V359.78C1027.04 357.75 1026.06 356.735 1024.1 356.735H1018.22C1017.98 356.735 1017.87 356.84 1017.87 357.05V374.445C1017.87 374.655 1017.98 374.76 1018.22 374.76ZM1015.31 376.51V354.985C1015.31 354.658 1015.48 354.495 1015.8 354.495H1024.41C1026.02 354.495 1027.28 354.962 1028.19 355.895C1029.13 356.805 1029.59 358.065 1029.59 359.675V371.82C1029.59 373.43 1029.13 374.702 1028.19 375.635C1027.28 376.545 1026.02 377 1024.41 377H1015.8C1015.48 377 1015.31 376.837 1015.31 376.51ZM1044.49 377H1033.5C1033.17 377 1033.01 376.837 1033.01 376.51V354.985C1033.01 354.658 1033.17 354.495 1033.5 354.495H1044.49C1044.82 354.495 1044.98 354.658 1044.98 354.985V356.245C1044.98 356.572 1044.82 356.735 1044.49 356.735H1035.92C1035.68 356.735 1035.57 356.84 1035.57 357.05V364.12C1035.57 364.33 1035.68 364.435 1035.92 364.435H1043.41C1043.73 364.435 1043.9 364.598 1043.9 364.925V366.185C1043.9 366.512 1043.73 366.675 1043.41 366.675H1035.92C1035.68 366.675 1035.57 366.78 1035.57 366.99V374.445C1035.57 374.655 1035.68 374.76 1035.92 374.76H1044.49C1044.82 374.76 1044.98 374.923 1044.98 375.25V376.51C1044.98 376.837 1044.82 377 1044.49 377ZM1064.24 377H1060.04C1058.43 377 1057.16 376.545 1056.23 375.635C1055.32 374.725 1054.86 373.453 1054.86 371.82V359.675C1054.86 358.042 1055.32 356.77 1056.23 355.86C1057.16 354.95 1058.43 354.495 1060.04 354.495H1064.24C1065.85 354.495 1067.11 354.95 1068.02 355.86C1068.96 356.77 1069.42 358.042 1069.42 359.675V361.39C1069.42 361.717 1069.26 361.88 1068.93 361.88H1067.36C1067.03 361.88 1066.87 361.717 1066.87 361.39V359.78C1066.87 357.75 1065.89 356.735 1063.93 356.735H1060.32C1058.39 356.735 1057.42 357.75 1057.42 359.78V371.715C1057.42 373.745 1058.39 374.76 1060.32 374.76H1063.93C1065.89 374.76 1066.87 373.745 1066.87 371.715V370.105C1066.87 369.778 1067.03 369.615 1067.36 369.615H1068.93C1069.26 369.615 1069.42 369.778 1069.42 370.105V371.82C1069.42 373.453 1068.96 374.725 1068.02 375.635C1067.11 376.545 1065.85 377 1064.24 377ZM1077.51 374.76H1081.08C1083.04 374.76 1084.02 373.745 1084.02 371.715V359.78C1084.02 357.75 1083.04 356.735 1081.08 356.735H1077.51C1075.57 356.735 1074.6 357.75 1074.6 359.78V371.715C1074.6 373.745 1075.57 374.76 1077.51 374.76ZM1081.39 377H1077.23C1075.62 377 1074.35 376.545 1073.41 375.635C1072.5 374.725 1072.05 373.453 1072.05 371.82V359.675C1072.05 358.042 1072.5 356.77 1073.41 355.86C1074.35 354.95 1075.62 354.495 1077.23 354.495H1081.39C1083 354.495 1084.26 354.962 1085.17 355.895C1086.11 356.805 1086.57 358.065 1086.57 359.675V371.82C1086.57 373.43 1086.11 374.702 1085.17 375.635C1084.26 376.545 1083 377 1081.39 377ZM1092.02 377H1090.48C1090.16 377 1089.99 376.837 1089.99 376.51V354.985C1089.99 354.658 1090.16 354.495 1090.48 354.495H1091.92C1092.2 354.495 1092.39 354.588 1092.48 354.775L1102.14 371.75H1102.28V354.985C1102.28 354.658 1102.44 354.495 1102.77 354.495H1104.31C1104.64 354.495 1104.8 354.658 1104.8 354.985V376.51C1104.8 376.837 1104.64 377 1104.31 377H1103.01C1102.76 377 1102.51 376.848 1102.28 376.545L1092.65 359.745H1092.51V376.51C1092.51 376.837 1092.35 377 1092.02 377ZM1113.69 374.76H1117.26C1119.22 374.76 1120.2 373.745 1120.2 371.715V359.78C1120.2 357.75 1119.22 356.735 1117.26 356.735H1113.69C1111.75 356.735 1110.79 357.75 1110.79 359.78V371.715C1110.79 373.745 1111.75 374.76 1113.69 374.76ZM1117.58 377H1113.41C1111.8 377 1110.53 376.545 1109.6 375.635C1108.69 374.725 1108.23 373.453 1108.23 371.82V359.675C1108.23 358.042 1108.69 356.77 1109.6 355.86C1110.53 354.95 1111.8 354.495 1113.41 354.495H1117.58C1119.19 354.495 1120.45 354.962 1121.36 355.895C1122.29 356.805 1122.76 358.065 1122.76 359.675V371.82C1122.76 373.43 1122.29 374.702 1121.36 375.635C1120.45 376.545 1119.19 377 1117.58 377ZM1125.93 371.82V370.7C1125.93 370.373 1126.1 370.21 1126.42 370.21H1128C1128.32 370.21 1128.49 370.373 1128.49 370.7V371.61C1128.49 373.71 1129.53 374.76 1131.6 374.76H1134.68C1136.76 374.76 1137.8 373.687 1137.8 371.54V370.35C1137.8 368.67 1136.41 367.573 1133.63 367.06C1132.47 366.85 1131.3 366.605 1130.13 366.325C1128.97 366.045 1127.97 365.508 1127.16 364.715C1126.34 363.898 1125.93 362.79 1125.93 361.39V359.675C1125.93 358.065 1126.39 356.805 1127.3 355.895C1128.23 354.962 1129.5 354.495 1131.11 354.495H1135C1136.58 354.495 1137.84 354.962 1138.78 355.895C1139.71 356.805 1140.18 358.065 1140.18 359.675V360.55C1140.18 360.9 1140.03 361.075 1139.72 361.075H1138.11C1137.81 361.075 1137.66 360.9 1137.66 360.55V359.92C1137.66 357.797 1136.62 356.735 1134.54 356.735H1131.57C1129.49 356.735 1128.45 357.843 1128.45 360.06V361.46C1128.45 362.65 1129.23 363.467 1130.8 363.91C1131.5 364.097 1132.27 364.272 1133.11 364.435C1133.95 364.575 1134.79 364.773 1135.63 365.03C1136.49 365.263 1137.27 365.567 1137.97 365.94C1138.67 366.29 1139.23 366.838 1139.65 367.585C1140.1 368.308 1140.32 369.195 1140.32 370.245V371.82C1140.32 373.43 1139.85 374.702 1138.92 375.635C1137.98 376.545 1136.72 377 1135.14 377H1131.11C1129.53 377 1128.27 376.545 1127.33 375.635C1126.4 374.702 1125.93 373.43 1125.93 371.82ZM1152.87 377H1148.67C1147.06 377 1145.79 376.545 1144.86 375.635C1143.95 374.725 1143.49 373.453 1143.49 371.82V359.675C1143.49 358.042 1143.95 356.77 1144.86 355.86C1145.79 354.95 1147.06 354.495 1148.67 354.495H1152.87C1154.48 354.495 1155.74 354.95 1156.65 355.86C1157.58 356.77 1158.05 358.042 1158.05 359.675V361.39C1158.05 361.717 1157.89 361.88 1157.56 361.88H1155.99C1155.66 361.88 1155.5 361.717 1155.5 361.39V359.78C1155.5 357.75 1154.52 356.735 1152.56 356.735H1148.95C1147.01 356.735 1146.05 357.75 1146.05 359.78V371.715C1146.05 373.745 1147.01 374.76 1148.95 374.76H1152.56C1154.52 374.76 1155.5 373.745 1155.5 371.715V370.105C1155.5 369.778 1155.66 369.615 1155.99 369.615H1157.56C1157.89 369.615 1158.05 369.778 1158.05 370.105V371.82C1158.05 373.453 1157.58 374.725 1156.65 375.635C1155.74 376.545 1154.48 377 1152.87 377ZM1166.14 374.76H1169.71C1171.67 374.76 1172.65 373.745 1172.65 371.715V359.78C1172.65 357.75 1171.67 356.735 1169.71 356.735H1166.14C1164.2 356.735 1163.23 357.75 1163.23 359.78V371.715C1163.23 373.745 1164.2 374.76 1166.14 374.76ZM1170.02 377H1165.86C1164.25 377 1162.98 376.545 1162.04 375.635C1161.13 374.725 1160.68 373.453 1160.68 371.82V359.675C1160.68 358.042 1161.13 356.77 1162.04 355.86C1162.98 354.95 1164.25 354.495 1165.86 354.495H1170.02C1171.63 354.495 1172.89 354.962 1173.8 355.895C1174.74 356.805 1175.2 358.065 1175.2 359.675V371.82C1175.2 373.43 1174.74 374.702 1173.8 375.635C1172.89 376.545 1171.63 377 1170.02 377Z" fill="white"/>
<path d="M1353.36 309.013C1353.36 313.341 1352 317.314 1349.28 320.934C1346.64 324.475 1343.04 327.307 1338.47 329.432C1333.91 331.556 1328.87 332.618 1323.35 332.618H1256.23V320.816H1323.35C1326.63 320.816 1329.63 320.304 1332.35 319.281C1335.07 318.18 1337.23 316.724 1338.83 314.914C1340.52 313.105 1341.36 311.138 1341.36 309.013V303.112H1286.24C1280.72 303.112 1275.68 301.774 1271.11 299.099C1266.63 296.424 1263.03 292.883 1260.31 288.477C1257.59 283.992 1256.23 279.034 1256.23 273.605V250H1268.23V273.605C1268.23 276.831 1269.03 279.821 1270.63 282.575C1272.24 285.251 1274.4 287.375 1277.12 288.949C1279.92 290.522 1282.96 291.309 1286.24 291.309H1341.36V250H1353.36V309.013Z" fill="white"/>
<path d="M1243.91 332.316H1173.1V250H1184.33V320.556H1243.91V332.316Z" fill="white"/>
<path d="M1164.85 291.309C1164.85 297.053 1163.91 302.443 1162.04 307.479C1160.16 312.436 1157.47 316.803 1153.97 320.58C1150.54 324.357 1146.39 327.307 1141.5 329.432C1136.69 331.556 1131.35 332.618 1125.48 332.618H1080.74V326.868V320.816H1125.48C1131.1 320.816 1135.95 319.478 1140.03 316.803C1144.1 314.128 1147.2 310.587 1149.32 306.181C1151.52 301.696 1152.62 296.738 1152.62 291.309C1152.62 285.88 1151.52 280.923 1149.32 276.438C1147.2 271.953 1144.1 268.412 1140.03 265.816C1135.95 263.14 1131.1 261.803 1125.48 261.803H1076.21V323.176L1070.68 330.258L1063.99 323.176V250H1125.48C1131.35 250 1136.69 251.062 1141.5 253.187C1146.39 255.311 1150.54 258.301 1153.97 262.157C1157.47 265.934 1160.16 270.34 1162.04 275.376C1163.91 280.333 1164.85 285.644 1164.85 291.309Z" fill="white"/>
<path d="M1051.5 332.618H1039.49V316.095H966.49V305.472H1039.49V261.803H996.388C990.945 261.803 985.942 263.14 981.379 265.816C976.817 268.412 973.174 271.953 970.453 276.438C967.811 280.923 966.49 285.88 966.49 291.309V332.618H954.483V291.309C954.483 285.644 955.564 280.333 957.725 275.376C959.887 270.34 962.888 265.934 966.731 262.157C970.573 258.301 975.016 255.311 980.059 253.187C985.182 251.062 990.625 250 996.388 250H1051.5V332.618Z" fill="white"/>
<path d="M947.382 332.618H893.23C887.387 332.618 882.104 331.556 877.381 329.432C872.658 327.307 868.576 324.357 865.134 320.58C861.772 316.803 859.17 312.436 857.329 307.479C855.488 302.443 854.567 297.053 854.567 291.309C854.567 285.644 855.488 280.333 857.329 275.376C859.17 270.34 861.772 265.934 865.134 262.157C868.576 258.301 872.658 255.311 877.381 253.187C882.104 251.062 887.387 250 893.23 250H947.382V261.803H893.23C887.707 261.803 882.944 263.14 878.942 265.816C875.019 268.412 871.978 271.953 869.816 276.438C867.655 280.923 866.574 285.88 866.574 291.309C866.574 296.738 867.655 301.696 869.816 306.181C871.978 310.587 875.019 314.128 878.942 316.803C882.944 319.478 887.707 320.816 893.23 320.816H947.382V332.618Z" fill="white"/>
<path d="M844.017 332.618H832.01V309.013H764.891V297.211H832.01V261.803H788.905C783.462 261.803 778.459 263.14 773.896 265.816C769.333 268.412 765.691 271.953 762.969 276.438C760.328 280.923 759.007 285.88 759.007 291.309V332.618H747V291.309C747 285.644 748.081 280.333 750.242 275.376C752.403 270.34 755.405 265.934 759.247 262.157C763.09 258.301 767.532 255.311 772.575 253.187C777.698 251.062 783.141 250 788.905 250H844.017V332.618Z" fill="white"/>
<path d="M1020.39 332.316H1032.71V342L1026.55 339.579L1020.39 342V332.316Z" fill="white"/>
<line x1="979.938" y1="283.127" x2="1011.16" y2="283.127" stroke="white" stroke-width="4.80284"/>
<line x1="979.938" y1="290.209" x2="1030.37" y2="290.209" stroke="white" stroke-width="4.80284"/>
<line x1="1013.56" y1="283.127" x2="1030.37" y2="283.127" stroke="white" stroke-width="4.80284"/>
<path d="M965.528 321.996H1039.97V332.618H965.528V321.996Z" fill="white"/>
<path d="M250.929 339.688L179.033 353.143L189.79 410.623L261.686 397.168L250.929 339.688Z" fill="#F5F5F5"/>
<path d="M250.948 339.706L250.599 339.791L249.542 339.992L245.643 340.752L230.923 343.574L179.093 353.401L179.293 353.105C182.463 370.213 186.183 389.825 190.082 410.579L189.755 410.346L261.61 396.947L261.43 397.222C258.26 379.913 255.597 365.574 253.748 355.525C252.839 350.506 252.121 346.564 251.634 343.901C251.391 342.559 251.212 341.534 251.085 340.816C250.958 340.097 250.905 339.759 250.905 339.759C250.905 339.759 250.99 340.097 251.117 340.816L251.719 343.849C252.237 346.543 252.987 350.463 253.949 355.472C255.861 365.542 258.587 379.924 261.884 397.275L261.937 397.497L261.705 397.55L189.807 410.97L189.533 411.022L189.48 410.737C185.612 389.984 181.946 370.372 178.754 353.253V353.01L179.008 352.957L231.04 343.341L245.717 340.657L249.595 339.96L250.578 339.791L250.948 339.706Z" fill="#E0E0E0"/>
<path d="M249.031 343.785L182.183 356.295L191.585 406.535L258.433 394.025L249.031 343.785Z" fill="#EBEBEB"/>
<path d="M191.561 406.553L209.07 370.953L227.182 387.786L235.044 375.507L258.407 394.052L191.561 406.553Z" fill="#E0E0E0"/>
<path d="M228.958 363.281C229.153 364.323 229.035 365.398 228.618 366.372C228.202 367.347 227.506 368.175 226.619 368.754C225.731 369.333 224.692 369.636 223.633 369.624C222.573 369.612 221.541 369.287 220.667 368.689C219.793 368.09 219.115 367.246 218.72 366.263C218.326 365.28 218.231 364.202 218.449 363.165C218.667 362.128 219.187 361.18 219.944 360.438C220.701 359.697 221.661 359.197 222.702 359.002C223.394 358.872 224.105 358.879 224.794 359.024C225.482 359.169 226.136 359.448 226.717 359.845C227.298 360.243 227.795 360.751 228.179 361.34C228.564 361.93 228.828 362.589 228.958 363.281Z" fill="#E0E0E0"/>
<path d="M358.649 98.8726L321.84 302.225L472.403 329.479L509.212 126.126L358.649 98.8726Z" fill="#FAFAFA"/>
<path d="M472.398 329.488C472.398 329.488 472.451 329.15 472.557 328.516L473.064 325.652C473.508 323.137 474.174 319.418 475.03 314.589C476.773 304.91 479.309 290.771 482.521 272.871L508.939 126.096L509.15 126.392L358.624 99.1609L358.952 98.9284C345.215 174.788 332.461 245.058 322.084 302.268L321.904 302.004L431.304 321.933L461.662 327.491L469.651 328.97C471.458 329.298 472.398 329.488 472.398 329.488L469.693 329.023L461.736 327.607L431.378 322.208L321.799 302.49H321.577V302.268C331.922 245.037 344.634 174.767 358.35 98.9073V98.6326H358.635L509.256 125.885L509.509 125.938V126.181C498.551 186.412 489.295 237.271 482.786 273.061L475.177 314.694C474.29 319.502 473.614 323.148 473.149 325.705C472.916 326.942 472.747 327.882 472.631 328.527L472.398 329.488Z" fill="#E0E0E0"/>
<path d="M435.294 131.934L371.367 120.363L361.286 176.054L425.213 187.625L435.294 131.934Z" fill="#E0E0E0"/>
<path d="M486.281 141.163L445.354 133.755L444.039 141.023L484.965 148.431L486.281 141.163Z" fill="#E0E0E0"/>
<path d="M476.844 208.693L360.033 187.549L358.718 194.817L475.528 215.961L476.844 208.693Z" fill="#E0E0E0"/>
<path d="M474.538 221.486L357.728 200.342L356.412 207.61L473.223 228.754L474.538 221.486Z" fill="#E0E0E0"/>
<path d="M472.223 234.278L355.413 213.135L354.097 220.403L470.908 241.547L472.223 234.278Z" fill="#E0E0E0"/>
<path d="M469.898 247.069L353.087 225.925L351.771 233.193L468.582 254.337L469.898 247.069Z" fill="#E0E0E0"/>
<path d="M467.583 259.851L350.772 238.707L349.457 245.975L466.267 267.119L467.583 259.851Z" fill="#E0E0E0"/>
<path d="M459.646 303.713L342.835 282.569L341.519 289.838L458.33 310.981L459.646 303.713Z" fill="#E0E0E0"/>
<path d="M412.589 263.113L348.465 251.506L347.149 258.774L411.273 270.381L412.589 263.113Z" fill="#E0E0E0"/>
<path d="M484.156 152.928L443.23 145.52L441.914 152.788L482.841 160.196L484.156 152.928Z" fill="#E0E0E0"/>
<path d="M480.477 164.842L439.717 157.355L438.388 164.594L479.147 172.08L480.477 164.842Z" fill="#E0E0E0"/>
<path d="M464.205 173.599L438.969 169.031L437.653 176.299L462.889 180.867L464.205 173.599Z" fill="#E0E0E0"/>
<path d="M540.481 97.9351L527.494 98.4634L526.088 102.098C525.687 103.045 525.472 104.061 525.454 105.089C525.441 105.544 525.555 105.993 525.783 106.387C526.01 106.78 526.343 107.103 526.744 107.319C527.917 107.693 529.147 107.861 530.379 107.815V108.872L518.29 109.316V108.259C519.518 108.046 520.637 107.42 521.46 106.484C522.711 104.751 523.697 102.842 524.387 100.82L536.254 71H536.772L551.238 100.587C552.647 103.405 553.76 105.166 554.577 105.871C555.333 106.453 556.264 106.762 557.219 106.748V107.741L539.434 108.46V107.456H540.174C541.216 107.504 542.249 107.255 543.154 106.737C543.346 106.591 543.498 106.397 543.594 106.175C543.69 105.953 543.728 105.71 543.703 105.469C543.687 105.13 543.619 104.795 543.503 104.476C543.503 104.318 543.154 103.641 542.605 102.479L540.481 97.9351ZM539.477 95.9696L533.496 83.5218L528.36 96.4135L539.477 95.9696Z" fill="#E0E0E0"/>
<path d="M565.073 174.715L505.679 194.554L521.541 242.041L580.935 222.202L565.073 174.715Z" fill="#F5F5F5"/>
<path d="M563.928 178.415L508.714 196.857L522.577 238.361L577.791 219.918L563.928 178.415Z" fill="#EBEBEB"/>
<path d="M522.581 238.38L533.254 206.14L550.583 218.292L555.803 206.954L577.793 219.941L522.581 238.38Z" fill="#E0E0E0"/>
<path d="M549.209 197.296C549.497 198.156 549.523 199.083 549.284 199.958C549.046 200.833 548.553 201.618 547.868 202.213C547.183 202.808 546.337 203.186 545.437 203.3C544.537 203.414 543.624 203.259 542.812 202.854C542 202.449 541.327 201.812 540.877 201.024C540.428 200.237 540.221 199.333 540.285 198.428C540.349 197.523 540.68 196.658 541.236 195.941C541.791 195.224 542.547 194.688 543.408 194.401C543.979 194.209 544.582 194.131 545.183 194.173C545.784 194.214 546.371 194.374 546.91 194.643C547.449 194.912 547.929 195.285 548.324 195.74C548.719 196.196 549.019 196.724 549.209 197.296Z" fill="#E0E0E0"/>
<path d="M566.721 119.49L552.183 193.728L645.036 211.912L659.574 137.673L566.721 119.49Z" fill="#F5F5F5"/>
<path d="M659.592 137.677L659.137 137.603L657.827 137.371L652.776 136.409L633.755 132.753L566.687 119.745L566.983 119.544C562.661 141.64 557.716 166.969 552.475 193.777L552.253 193.439L645.094 211.688L644.819 211.868C649.247 189.529 652.913 171.005 655.481 158.061C656.781 151.583 657.795 146.501 658.493 143.024C658.841 141.291 659.105 139.97 659.296 139.051C659.486 138.132 659.592 137.677 659.592 137.677C659.592 137.677 659.518 138.132 659.349 139.019C659.179 139.907 658.936 141.238 658.609 142.95C657.943 146.416 656.971 151.488 655.735 157.955C653.22 170.952 649.616 189.54 645.284 211.963L645.231 212.195H645.009L552.105 194.009L551.83 193.957L551.883 193.682C557.166 166.884 562.122 141.555 566.455 119.46L566.508 119.206L566.751 119.259L633.967 132.531L652.903 136.314L657.901 137.371L659.169 137.635L659.592 137.677Z" fill="#E0E0E0"/>
<path d="M569.017 124.793L556.311 189.678L642.641 206.584L655.347 141.699L569.017 124.793Z" fill="#EBEBEB"/>
<path d="M556.311 189.688L594.362 155.261L608.099 184.151L623.411 173.14L642.642 206.595L556.311 189.688Z" fill="#E0E0E0"/>
<path d="M621.941 155.525C621.68 156.871 621.025 158.109 620.059 159.083C619.093 160.057 617.861 160.722 616.517 160.995C615.173 161.268 613.778 161.136 612.509 160.616C611.24 160.097 610.154 159.212 609.388 158.075C608.622 156.937 608.21 155.598 608.205 154.227C608.2 152.856 608.602 151.514 609.36 150.371C610.118 149.228 611.198 148.335 612.463 147.806C613.728 147.278 615.122 147.136 616.468 147.399C617.361 147.572 618.212 147.92 618.97 148.423C619.729 148.925 620.381 149.572 620.89 150.327C621.398 151.082 621.753 151.929 621.933 152.821C622.114 153.713 622.116 154.632 621.941 155.525Z" fill="#E0E0E0"/>
<path d="M209.462 78.3333L214.259 134.317L235.974 140.203L278.094 135.31L272.166 72.2891L209.462 78.3333Z" fill="#F5F5F5"/>
<path d="M220.885 129.287L214.27 134.317C216.784 136.497 219.724 138.131 222.903 139.114C227.153 140.297 231.59 140.656 235.974 140.171C235.974 140.171 225.946 138.47 220.885 129.287Z" fill="#EBEBEB"/>
<path d="M267.094 92.9053C267.094 93.011 256.442 94.1205 243.286 95.3991C230.131 96.6777 219.437 97.6287 219.426 97.5125C219.416 97.3962 230.078 96.2656 243.244 95.0187C256.411 93.7718 267.083 92.7679 267.094 92.9053Z" fill="#E0E0E0"/>
<path d="M267.718 101.485C267.718 101.591 257.067 102.711 243.911 103.99C230.755 105.268 220.061 106.209 220.051 106.103C220.04 105.998 230.702 104.877 243.869 103.599C257.035 102.32 267.708 101.359 267.718 101.485Z" fill="#E0E0E0"/>
<path d="M268.721 109.083C268.721 109.189 258.069 110.309 244.914 111.577C231.758 112.845 221.075 113.807 221.064 113.69C221.053 113.574 231.705 112.475 244.871 111.197C258.038 109.918 268.71 108.978 268.721 109.083Z" fill="#E0E0E0"/>
<path d="M269.387 116.427C269.387 116.522 258.736 117.642 245.569 118.921C232.403 120.199 221.73 121.151 221.72 121.034C221.709 120.918 232.371 119.809 245.538 118.54C258.704 117.272 269.377 116.321 269.387 116.427Z" fill="#E0E0E0"/>
<path d="M663.47 529.214C663.47 529.362 552.094 529.488 414.745 529.488C277.397 529.488 166 529.362 166 529.214C166 529.066 277.344 528.928 414.745 528.928C552.147 528.928 663.47 529.055 663.47 529.214Z" fill="#263238"/>
<path d="M195.937 175.697L240.487 430.804L428.345 401.311L437.053 380.273L386.226 144.387L210.138 154.891L195.937 175.697Z" fill="#E0E0E0"/>
<path opacity="0.3" d="M240.487 430.804L253.833 410.357L209.283 155.239L195.937 175.697L240.487 430.804Z" fill="black"/>
<path d="M209.283 155.24L253.833 410.357L437.053 380.273L390.759 129.361L209.283 155.24Z" fill="#FAFAFA"/>
<path d="M209.283 155.25L390.727 129.15H390.949V129.361C403.936 199.431 420.019 286.28 437.327 380.22L437.38 380.505L437.095 380.558L434.073 381.055L253.875 410.642H253.622V410.389C227.416 259.715 209.674 157.49 209.283 155.25C209.674 157.501 227.627 259.683 254.086 410.315L253.791 410.114L433.978 380.526L437 380.03L436.767 380.357C419.459 286.407 403.46 199.557 390.537 129.435L390.791 129.615L209.283 155.25Z" fill="#263238"/>
<path d="M356.183 276.057C358.455 258.962 346.439 243.262 329.344 240.99C312.249 238.718 296.549 250.735 294.277 267.83C292.005 284.925 304.022 300.625 321.117 302.896C338.212 305.168 353.912 293.152 356.183 276.057Z" fill="#FFD118"/>
<path d="M310.904 280.13L309.488 271.138L340.629 266.203L341.96 274.656C341.96 274.656 340.058 281.926 327.463 283.913C314.867 285.899 310.904 280.13 310.904 280.13Z" fill="white"/>
<path d="M304.574 271.19L326.796 275.142L346.071 264.301L323.817 260.782L304.574 271.19Z" fill="white"/>
<path d="M366.75 183.964L256.333 201.412C254.978 201.627 254.053 202.898 254.267 204.253L254.64 206.612C254.854 207.966 256.126 208.891 257.481 208.677L367.898 191.228C369.253 191.014 370.177 189.742 369.963 188.388L369.59 186.029C369.376 184.674 368.105 183.75 366.75 183.964Z" fill="#E0E0E0"/>
<path d="M349.282 202.33L279.257 213.396C277.902 213.61 276.978 214.882 277.192 216.237L277.565 218.595C277.779 219.95 279.05 220.875 280.405 220.661L350.429 209.595C351.784 209.381 352.709 208.109 352.495 206.755L352.122 204.396C351.908 203.041 350.636 202.116 349.282 202.33Z" fill="#E0E0E0"/>
<path d="M374.504 358.858L304.479 369.924C303.125 370.138 302.2 371.41 302.414 372.764L302.787 375.123C303.001 376.478 304.272 377.403 305.627 377.188L375.652 366.123C377.006 365.909 377.931 364.637 377.717 363.282L377.344 360.923C377.13 359.569 375.858 358.644 374.504 358.858Z" fill="#E0E0E0"/>
<path d="M427.617 387.363L426.729 387.532L424.108 387.987L413.975 389.678L376.346 395.849L249.226 416.507L248.951 416.56V416.285C247.176 406.194 245.305 395.627 243.403 384.859C233.175 327.005 223.96 274.657 217.293 236.732C213.985 217.775 211.312 202.442 209.452 191.833C208.543 186.55 207.835 182.418 207.339 179.618C207.106 178.223 206.926 177.166 206.8 176.448C206.673 175.729 206.641 175.391 206.641 175.391C206.641 175.391 206.726 175.761 206.863 176.448C207 177.134 207.191 178.233 207.444 179.618C207.951 182.418 208.691 186.528 209.653 191.812C211.544 202.379 214.281 217.743 217.662 236.679C224.372 274.593 233.65 326.942 243.89 384.785C245.792 395.542 247.651 406.12 249.437 416.211L249.11 415.979L376.272 395.5L413.922 389.498L424.066 387.902L426.697 387.501L427.617 387.363Z" fill="#263238"/>
<path d="M413.678 396.958L412.844 397.127L410.371 397.56L400.797 399.187L365.208 405.126L244.428 425.119H244.153V424.855L237.211 387.162C226.866 330.101 217.503 278.481 210.719 241.096C207.359 222.413 204.633 207.282 202.752 196.82C201.833 191.6 201.104 187.543 200.639 184.774C200.406 183.411 200.216 182.365 200.1 181.604C199.983 180.843 199.931 180.547 199.931 180.547C199.931 180.547 200.015 180.896 200.153 181.604L200.755 184.774C201.262 187.532 202.023 191.579 202.995 196.789L211.132 241.032C217.958 278.418 227.384 330.038 237.792 387.067C240.138 399.991 242.441 412.639 244.65 424.802L244.333 424.58L365.123 404.777L400.734 398.997L410.318 397.465L412.801 397.085L413.678 396.958Z" fill="#263238"/>
<path d="M213.709 263.276L209.578 269.109L219.606 329.224L225.576 331.253L213.709 263.276Z" fill="#263238"/>
<path d="M242.324 258.27L213.719 263.267L225.595 331.24L254.199 326.242L242.324 258.27Z" fill="#263238"/>
<path d="M243.236 255.634L241.373 255.959C240.309 256.145 239.597 257.157 239.783 258.221L251.799 327.07C251.985 328.133 252.997 328.845 254.061 328.659L255.924 328.334C256.988 328.149 257.699 327.136 257.514 326.072L245.498 257.223C245.312 256.16 244.299 255.448 243.236 255.634Z" fill="#263238"/>
<path d="M208.765 312.454C205.595 312.441 202.537 311.282 200.156 309.19C197.775 307.098 196.231 304.215 195.81 301.074C195.446 298.39 195.924 295.659 197.176 293.257C198.428 290.856 200.394 288.901 202.803 287.663C205.211 286.424 207.945 285.963 210.627 286.341C213.308 286.72 215.807 287.921 217.779 289.778L235.637 279.633C235.978 279.44 236.362 279.331 236.754 279.316C237.147 279.301 237.538 279.381 237.893 279.549C238.248 279.717 238.558 279.968 238.796 280.28C239.034 280.593 239.194 280.958 239.261 281.345L243.488 305.533C243.557 305.918 243.534 306.314 243.418 306.687C243.303 307.061 243.099 307.402 242.825 307.68C242.55 307.959 242.213 308.167 241.841 308.288C241.469 308.409 241.073 308.439 240.688 308.375L220.526 305.205C219.434 307.39 217.756 309.227 215.678 310.512C213.601 311.796 211.207 312.476 208.765 312.475V312.454ZM208.765 288.351C208.234 288.348 207.704 288.387 207.18 288.467C204.337 288.929 201.782 290.471 200.048 292.77C198.314 295.069 197.534 297.949 197.87 300.809C198.191 303.201 199.289 305.422 200.997 307.127C202.704 308.833 204.925 309.929 207.318 310.246C209.71 310.563 212.14 310.084 214.233 308.883C216.326 307.682 217.966 305.825 218.899 303.599L219.216 302.838L241.026 306.357C241.077 306.368 241.131 306.365 241.181 306.348C241.232 306.332 241.276 306.302 241.311 306.262C241.349 306.225 241.377 306.181 241.393 306.131C241.41 306.081 241.414 306.028 241.406 305.977L237.179 281.778C237.169 281.726 237.147 281.676 237.114 281.634C237.081 281.592 237.038 281.558 236.989 281.535C236.942 281.511 236.889 281.499 236.836 281.499C236.783 281.499 236.73 281.511 236.683 281.535L217.398 292.44L216.828 291.838C215.794 290.747 214.549 289.878 213.168 289.286C211.787 288.693 210.299 288.39 208.797 288.393L208.765 288.351Z" fill="#455A64"/>
<path d="M251.666 326.17C251.595 325.95 251.546 325.723 251.518 325.494C251.423 324.987 251.306 324.342 251.148 323.549C250.831 321.785 250.387 319.323 249.838 316.364C248.781 310.246 247.259 301.898 245.611 292.673C243.962 283.448 242.557 275.079 241.5 268.94C241.004 265.96 240.602 263.519 240.317 261.743C240.19 260.94 240.095 260.285 240.021 259.778C239.971 259.553 239.95 259.322 239.957 259.091C240.029 259.309 240.086 259.531 240.127 259.757C240.232 260.264 240.37 260.909 240.528 261.701C240.866 263.466 241.331 265.928 241.891 268.876C243.022 274.931 244.533 283.311 246.118 292.567C247.703 301.824 249.182 310.225 250.176 316.301C250.683 319.344 251.063 321.806 251.317 323.507C251.433 324.363 251.539 325.018 251.581 325.483C251.637 325.708 251.666 325.938 251.666 326.17Z" fill="#455A64"/>
<path d="M225.006 331.485C224.943 331.259 224.894 331.03 224.858 330.798C224.763 330.302 224.647 329.657 224.499 328.854C224.171 327.089 223.727 324.627 223.178 321.679C222.121 315.55 220.6 307.202 218.951 297.978C217.303 288.753 215.908 280.384 214.841 274.255C214.344 271.264 213.942 268.823 213.657 267.059C213.53 266.245 213.435 265.601 213.361 265.093C213.312 264.864 213.29 264.63 213.298 264.396C213.378 264.615 213.438 264.842 213.477 265.072C213.573 265.579 213.71 266.224 213.868 267.016C214.207 268.781 214.672 271.243 215.232 274.181C216.362 280.246 217.873 288.615 219.458 297.882C221.043 307.15 222.523 315.529 223.527 321.605C224.023 324.648 224.414 327.111 224.657 328.822C224.774 329.678 224.879 330.333 224.921 330.788C224.978 331.016 225.006 331.25 225.006 331.485Z" fill="#455A64"/>
<path d="M346.05 264.301C345.59 264.653 345.102 264.967 344.592 265.241L340.513 267.64C337.047 269.648 332.239 272.384 326.913 275.385L326.818 275.438H326.723H326.501C320.425 274.382 314.878 273.325 310.968 272.596L306.266 271.676C305.683 271.587 305.111 271.446 304.554 271.254C305.142 271.28 305.728 271.347 306.308 271.455L311.031 272.205C315.026 272.86 320.541 273.811 326.607 274.889H326.818H326.628C331.964 271.898 336.804 269.214 340.365 267.291L344.539 265.051C345.018 264.755 345.524 264.504 346.05 264.301Z" fill="#263238"/>
<path d="M284.089 188.541L282.508 178.755L278.633 179.381L278.176 176.552L289.476 174.726L289.933 177.555L286.076 178.179L287.658 187.965L284.089 188.541ZM299.239 173.148L302.808 172.571L304.847 185.187L301.278 185.763L299.239 173.148ZM296.412 186.55L292.844 187.126L290.805 174.511L294.373 173.934L296.412 186.55ZM300.735 180.802L295.365 181.67L294.887 178.715L300.258 177.847L300.735 180.802ZM309.394 176.518L315.251 175.572L315.683 178.239L309.825 179.185L309.394 176.518ZM310.45 181.452L317.047 180.385L317.492 183.143L307.364 184.78L305.325 172.164L315.219 170.565L315.665 173.323L309.303 174.351L310.45 181.452ZM289.388 210.229C288.355 210.396 287.337 210.431 286.335 210.334C285.343 210.223 284.514 210.012 283.847 209.701L284.594 206.88C285.216 207.149 285.914 207.345 286.686 207.467C287.467 207.575 288.225 207.569 288.958 207.451C289.45 207.371 289.84 207.265 290.127 207.133C290.412 206.988 290.608 206.833 290.717 206.667C290.836 206.488 290.879 206.296 290.846 206.092C290.8 205.803 290.63 205.596 290.339 205.471C290.047 205.345 289.683 205.263 289.245 205.222C288.807 205.182 288.321 205.15 287.787 205.125C287.264 205.099 286.731 205.043 286.188 204.958C285.656 204.872 285.158 204.73 284.695 204.534C284.23 204.325 283.83 204.026 283.496 203.636C283.16 203.235 282.937 202.697 282.829 202.024C282.706 201.268 282.8 200.55 283.109 199.871C283.431 199.19 283.976 198.597 284.745 198.09C285.514 197.584 286.517 197.23 287.754 197.03C288.583 196.896 289.41 196.862 290.234 196.926C291.068 196.976 291.827 197.131 292.51 197.39L291.838 200.217C291.185 199.99 290.552 199.845 289.938 199.784C289.322 199.711 288.738 199.719 288.185 199.809C287.692 199.888 287.304 200.007 287.022 200.163C286.737 200.308 286.542 200.475 286.437 200.665C286.332 200.854 286.297 201.057 286.332 201.273C286.376 201.55 286.539 201.752 286.818 201.879C287.108 201.992 287.471 202.069 287.909 202.109C288.357 202.136 288.843 202.162 289.365 202.189C289.899 202.213 290.432 202.269 290.964 202.356C291.505 202.428 292.009 202.569 292.474 202.777C292.937 202.974 293.331 203.274 293.655 203.677C293.989 204.067 294.21 204.593 294.317 205.253C294.435 205.986 294.335 206.699 294.015 207.392C293.706 208.071 293.167 208.663 292.398 209.17C291.641 209.674 290.638 210.027 289.388 210.229ZM296.583 208.808L294.544 196.192L298.112 195.615L300.151 208.231L296.583 208.808ZM307.164 207.356C306.131 207.523 305.113 207.558 304.111 207.461C303.119 207.351 302.29 207.139 301.623 206.828L302.369 204.007C302.992 204.277 303.69 204.472 304.461 204.594C305.243 204.702 306.001 204.697 306.733 204.578C307.226 204.498 307.616 204.392 307.903 204.26C308.187 204.115 308.384 203.96 308.493 203.794C308.612 203.615 308.655 203.423 308.622 203.219C308.575 202.93 308.406 202.724 308.115 202.598C307.823 202.473 307.459 202.39 307.021 202.35C306.583 202.309 306.097 202.277 305.562 202.252C305.04 202.226 304.507 202.17 303.964 202.085C303.432 201.999 302.934 201.857 302.471 201.661C302.006 201.452 301.606 201.153 301.272 200.764C300.936 200.362 300.713 199.824 300.604 199.152C300.482 198.395 300.576 197.677 300.885 196.998C301.207 196.317 301.752 195.724 302.521 195.217C303.289 194.711 304.293 194.358 305.53 194.158C306.359 194.024 307.186 193.989 308.01 194.053C308.844 194.103 309.602 194.258 310.286 194.517L309.614 197.344C308.961 197.117 308.328 196.973 307.714 196.912C307.098 196.838 306.513 196.847 305.961 196.936C305.468 197.016 305.08 197.134 304.797 197.29C304.513 197.435 304.318 197.602 304.213 197.792C304.108 197.981 304.073 198.184 304.108 198.4C304.152 198.677 304.314 198.879 304.594 199.006C304.884 199.12 305.247 199.196 305.685 199.237C306.133 199.263 306.618 199.289 307.141 199.316C307.675 199.34 308.208 199.396 308.739 199.483C309.281 199.555 309.785 199.696 310.25 199.904C310.713 200.101 311.107 200.401 311.431 200.805C311.765 201.194 311.986 201.72 312.093 202.38C312.211 203.113 312.111 203.826 311.791 204.519C311.482 205.198 310.942 205.79 310.174 206.297C309.417 206.801 308.414 207.154 307.164 207.356Z" fill="#263238"/>
<path d="M362.091 387.501H452.184V434.777H362.091C357.144 434.777 352.4 432.812 348.903 429.314C345.405 425.817 343.44 421.073 343.44 416.126V406.141C343.44 401.194 345.405 396.45 348.903 392.953C352.4 389.455 357.144 387.49 362.091 387.49V387.501Z" fill="#FFD118"/>
<path d="M428.63 387.501H618.676C619.498 387.501 620.285 387.827 620.866 388.407C621.446 388.988 621.773 389.776 621.773 390.597V392.256C621.773 393.077 621.446 393.864 620.866 394.445C620.285 395.026 619.498 395.352 618.676 395.352H428.63V387.501Z" fill="#FFD118"/>
<path d="M428.63 426.936H618.676C619.083 426.936 619.486 427.017 619.861 427.172C620.237 427.328 620.578 427.556 620.866 427.843C621.153 428.131 621.381 428.472 621.537 428.848C621.693 429.223 621.773 429.626 621.773 430.033V431.692C621.773 432.513 621.446 433.3 620.866 433.881C620.285 434.461 619.498 434.788 618.676 434.788H428.63V426.936Z" fill="#FFD118"/>
<path d="M615.992 426.936H450.187C448.113 426.936 446.059 426.528 444.143 425.733C442.227 424.939 440.486 423.776 439.02 422.309C437.554 420.842 436.391 419.1 435.599 417.183C434.806 415.267 434.399 413.213 434.4 411.139C434.4 406.952 436.063 402.936 439.024 399.976C441.984 397.015 446 395.352 450.187 395.352H615.992C613.796 400.327 612.661 405.705 612.661 411.144C612.661 416.582 613.796 421.961 615.992 426.936Z" fill="#F5F5F5"/>
<path opacity="0.3" d="M434.4 434.788H362.46C357.416 434.788 352.578 432.784 349.011 429.217C345.444 425.65 343.44 420.812 343.44 415.767V406.373C343.44 401.368 345.428 396.568 348.968 393.028C352.507 389.489 357.307 387.501 362.312 387.501H436.186C419.078 397.877 420.357 422.71 434.4 434.788Z" fill="black"/>
<path d="M595.852 412.608C595.852 412.766 561.816 412.893 519.844 412.893C477.872 412.893 443.836 412.766 443.836 412.608C443.836 412.449 477.862 412.322 519.844 412.322C561.827 412.322 595.852 412.449 595.852 412.608Z" fill="#263238"/>
<path d="M611.49 419.624C611.49 419.782 577.454 419.909 535.482 419.909C493.511 419.909 459.475 419.782 459.475 419.624C459.475 419.465 493.5 419.349 535.482 419.349C577.465 419.349 611.49 419.476 611.49 419.624Z" fill="#263238"/>
<path d="M606.884 402.653C606.884 402.812 572.848 402.939 530.876 402.939C488.905 402.939 454.858 402.812 454.858 402.653C454.858 402.495 488.883 402.368 530.876 402.368C572.869 402.368 606.884 402.516 606.884 402.653Z" fill="#263238"/>
<path d="M426.073 431.47C426.073 431.628 410.138 431.755 390.494 431.755C370.85 431.755 354.916 431.628 354.916 431.47C354.916 431.311 370.84 431.184 390.494 431.184C410.149 431.184 426.073 431.311 426.073 431.47Z" fill="#263238"/>
<path d="M426.073 391.431C426.073 391.59 410.138 391.717 390.494 391.717C370.85 391.717 354.916 391.59 354.916 391.431C354.916 391.273 370.84 391.146 390.494 391.146C410.149 391.146 426.073 391.273 426.073 391.431Z" fill="#263238"/>
<path d="M322.317 467.968H443.72V528.854H322.317C317.37 528.854 312.626 526.889 309.129 523.392C305.631 519.894 303.666 515.15 303.666 510.204V486.618C303.666 481.672 305.631 476.928 309.129 473.43C312.626 469.933 317.37 467.968 322.317 467.968Z" fill="#FFD118"/>
<path d="M413.383 467.968H658.99C659.811 467.968 660.598 468.294 661.179 468.874C661.76 469.455 662.086 470.243 662.086 471.064V474.984C662.086 475.805 661.76 476.593 661.179 477.173C660.598 477.754 659.811 478.08 658.99 478.08H413.383V467.968Z" fill="#FFD118"/>
<path d="M413.383 518.752H658.99C659.811 518.752 660.598 519.079 661.179 519.659C661.76 520.24 662.086 521.027 662.086 521.848V525.769C662.086 526.59 661.76 527.377 661.179 527.958C660.598 528.539 659.811 528.865 658.99 528.865H413.383V518.752Z" fill="#FFD118"/>
<path d="M654.667 518.752H441.152C435.759 518.749 430.588 516.605 426.775 512.791C422.963 508.976 420.821 503.804 420.821 498.411C420.821 495.741 421.347 493.097 422.369 490.631C423.391 488.164 424.888 485.923 426.776 484.035C428.664 482.147 430.905 480.649 433.372 479.628C435.838 478.606 438.482 478.08 441.152 478.08H654.667C651.835 484.486 650.372 491.412 650.372 498.416C650.372 505.42 651.835 512.347 654.667 518.752Z" fill="#F5F5F5"/>
<path opacity="0.3" d="M420.8 528.854H322.073C319.656 528.854 317.263 528.378 315.031 527.453C312.798 526.528 310.769 525.172 309.061 523.462C307.352 521.753 305.998 519.723 305.074 517.49C304.15 515.257 303.675 512.864 303.676 510.447V487.052C303.676 482.007 305.68 477.169 309.247 473.602C312.814 470.035 317.652 468.031 322.697 468.031H423.083C401.072 481.324 402.72 513.31 420.8 528.854Z" fill="black"/>
<path d="M628.726 500.302C628.726 500.461 584.894 500.588 530.844 500.588C476.794 500.588 432.952 500.461 432.952 500.302C432.952 500.144 476.773 500.017 530.844 500.017C584.915 500.017 628.726 500.144 628.726 500.302Z" fill="#263238"/>
<path d="M648.877 509.337C648.877 509.496 605.046 509.623 550.985 509.623C496.925 509.623 453.093 509.496 453.093 509.337C453.093 509.179 496.914 509.062 550.985 509.062C605.056 509.062 648.877 509.242 648.877 509.337Z" fill="#263238"/>
<path d="M642.981 491.912C642.981 492.071 599.16 492.198 545.099 492.198C491.039 492.198 447.208 492.071 447.208 491.912C447.208 491.754 491.029 491.627 545.099 491.627C599.17 491.627 642.981 491.754 642.981 491.912Z" fill="#263238"/>
<path d="M410.075 524.585C410.075 524.744 389.564 524.87 364.257 524.87C338.949 524.87 318.438 524.744 318.438 524.585C318.438 524.427 338.949 524.31 364.257 524.31C389.564 524.31 410.075 524.437 410.075 524.585Z" fill="#263238"/>
<path d="M410.075 473.029C410.075 473.177 389.564 473.304 364.257 473.304C338.949 473.304 318.438 473.177 318.438 473.029C318.438 472.881 338.949 472.744 364.257 472.744C389.564 472.744 410.075 472.871 410.075 473.029Z" fill="#263238"/>
<path d="M380.054 433.329H480.081V468.2H380.054C376.411 468.2 372.917 466.753 370.341 464.177C367.765 461.6 366.317 458.106 366.317 454.463V447.066C366.317 443.423 367.765 439.929 370.341 437.353C372.917 434.777 376.411 433.329 380.054 433.329Z" fill="#455A64"/>
<path d="M455.439 433.329H654.267C655.127 433.329 655.952 433.671 656.561 434.279C657.169 434.888 657.511 435.713 657.511 436.573V438.306C657.511 439.167 657.169 439.992 656.561 440.6C655.952 441.209 655.127 441.55 654.267 441.55H455.439V433.34V433.329Z" fill="#455A64"/>
<path d="M455.439 459.979H654.267C655.127 459.979 655.952 460.321 656.561 460.929C657.169 461.538 657.511 462.363 657.511 463.223V464.956C657.511 465.817 657.169 466.642 656.561 467.25C655.952 467.859 655.127 468.2 654.267 468.2H455.439V459.99V459.979Z" fill="#455A64"/>
<path d="M651.434 459.979H470.74C468.295 459.979 465.95 459.008 464.22 457.281C462.491 455.553 461.517 453.209 461.515 450.765C461.515 448.318 462.487 445.972 464.217 444.242C465.947 442.512 468.293 441.54 470.74 441.54H651.434C646.813 447.69 646.813 453.836 651.434 459.979Z" fill="#F5F5F5"/>
<path opacity="0.3" d="M461.462 468.189H380.097C378.279 468.189 376.48 467.831 374.801 467.136C373.122 466.44 371.597 465.42 370.312 464.134C369.028 462.849 368.009 461.323 367.315 459.643C366.62 457.964 366.263 456.164 366.265 454.347V447.457C366.263 445.602 366.627 443.765 367.336 442.051C368.045 440.337 369.085 438.78 370.396 437.468C371.707 436.156 373.264 435.115 374.977 434.405C376.691 433.695 378.527 433.329 380.382 433.329H463.343C445.432 440.98 446.774 459.292 461.462 468.189Z" fill="black"/>
<path d="M630.396 449.307C630.396 449.465 594.785 449.592 550.869 449.592C506.953 449.592 471.342 449.465 471.342 449.307C471.342 449.148 506.942 449.032 550.869 449.032C594.796 449.032 630.396 449.159 630.396 449.307Z" fill="#263238"/>
<path d="M646.763 454.294C646.763 454.453 611.153 454.579 567.237 454.579C523.32 454.579 487.71 454.453 487.71 454.294C487.71 454.136 523.31 454.009 567.237 454.009C611.163 454.009 646.763 454.114 646.763 454.294Z" fill="#263238"/>
<path d="M452.776 464.724C452.776 464.882 436.112 465.009 415.549 465.009C394.985 465.009 378.321 464.882 378.321 464.724C378.321 464.565 394.985 464.438 415.549 464.438C436.112 464.438 452.776 464.565 452.776 464.724Z" fill="#263238"/>
<path d="M452.776 437.44C452.776 437.598 436.112 437.715 415.549 437.715C394.985 437.715 378.321 437.598 378.321 437.44C378.321 437.281 394.985 437.155 415.549 437.155C436.112 437.155 452.776 437.281 452.776 437.44Z" fill="#263238"/>
<path d="M655.132 433.329C655.132 433.488 593.981 433.615 518.576 433.615C443.17 433.615 381.977 433.488 381.977 433.329C381.977 433.171 443.107 433.044 518.544 433.044C593.981 433.044 655.132 433.16 655.132 433.329Z" fill="#263238"/>
<path d="M545.479 402.136V421.072L552.042 416.866L559.354 421.072V402.136H545.479Z" fill="#FFD118"/>
<path d="M612.167 214.182L579.124 241.708L528.868 340.995L560.199 355.155L609.081 257.781L612.167 214.182Z" fill="#FFD118"/>
<g opacity="0.7">
<path d="M609.081 257.749C608.698 257.844 608.299 257.849 607.914 257.764C607.529 257.678 607.169 257.505 606.862 257.257C606.555 257.01 606.309 256.694 606.144 256.336C605.979 255.978 605.9 255.586 605.911 255.192C604.869 256.406 603.472 257.262 601.918 257.64C600.364 258.019 598.73 257.9 597.246 257.302C595.763 256.704 594.504 255.655 593.648 254.305C592.791 252.954 592.379 251.368 592.47 249.771C591.077 250.521 589.511 250.887 587.93 250.832C586.35 250.776 584.812 250.302 583.476 249.456C582.139 248.611 581.051 247.426 580.324 246.022C579.596 244.618 579.255 243.045 579.335 241.466L612.093 214.15L609.081 257.749Z" fill="white"/>
</g>
<path d="M598.874 225.256C598.874 225.256 599.381 233.477 610.899 232.04L612.167 214.182L598.874 225.256Z" fill="#FFD118"/>
<path opacity="0.3" d="M592.512 249.803L544.062 347.325L528.867 340.985L579.123 241.656L579.377 241.445C579.302 242.769 579.533 244.092 580.053 245.312C580.747 246.914 581.874 248.29 583.308 249.285C585.068 250.487 587.205 251.009 589.321 250.754C590.433 250.634 591.515 250.312 592.512 249.803Z" fill="black"/>
<path opacity="0.3" d="M605.995 255.224L556.225 353.338L560.241 355.155L609.081 257.749C608.418 257.87 607.734 257.74 607.162 257.384C606.59 257.029 606.17 256.474 605.985 255.826C605.969 255.626 605.972 255.424 605.995 255.224Z" fill="black"/>
<path d="M592.258 240.335C592.155 240.456 592.095 240.609 592.089 240.768C592.091 240.999 592.178 241.221 592.335 241.391C592.491 241.561 592.705 241.667 592.935 241.688C593.684 241.721 594.425 241.513 595.048 241.096C595.442 240.865 595.756 240.518 595.946 240.103C596.051 239.878 596.098 239.63 596.081 239.382C596.064 239.135 595.985 238.895 595.851 238.687C595.677 238.47 595.458 238.294 595.211 238.168C594.963 238.042 594.692 237.971 594.414 237.957C593.803 237.904 593.187 237.94 592.586 238.063C591.241 238.287 589.956 238.787 588.814 239.532C588.508 239.72 588.247 239.97 588.046 240.267C587.846 240.565 587.711 240.901 587.651 241.254C587.635 241.624 587.711 241.992 587.871 242.326C588.032 242.659 588.272 242.948 588.571 243.167C589.265 243.566 590.032 243.822 590.827 243.92C591.622 244.018 592.428 243.956 593.199 243.738C594.728 243.416 596.139 242.68 597.278 241.61C598.416 240.54 599.239 239.178 599.655 237.672C599.726 237.339 599.719 236.994 599.635 236.664C599.551 236.334 599.391 236.028 599.169 235.77C598.721 235.29 598.162 234.928 597.542 234.713C596.425 234.304 595.253 234.069 594.065 234.016C592.334 233.925 590.601 234.183 588.972 234.777C588.401 234.988 587.915 235.189 587.672 235.326C587.429 235.464 587.229 235.538 587.229 235.538C587.769 235.195 588.342 234.908 588.94 234.682C590.574 234.057 592.318 233.773 594.065 233.847C595.277 233.888 596.474 234.116 597.616 234.523C598.268 234.748 598.856 235.129 599.328 235.633C599.576 235.919 599.755 236.258 599.851 236.625C599.946 236.992 599.955 237.375 599.877 237.746C599.331 239.707 598.124 241.419 596.46 242.592C594.796 243.765 592.778 244.327 590.747 244.181C589.915 244.138 589.113 243.86 588.433 243.378C588.093 243.144 587.818 242.827 587.633 242.457C587.449 242.088 587.36 241.678 587.376 241.265C587.442 240.879 587.589 240.512 587.807 240.187C588.026 239.863 588.311 239.589 588.644 239.384C589.816 238.624 591.133 238.117 592.512 237.894C593.135 237.777 593.772 237.748 594.403 237.809C594.704 237.828 594.997 237.909 595.263 238.05C595.529 238.19 595.762 238.386 595.946 238.623C596.092 238.857 596.178 239.123 596.194 239.398C596.211 239.673 596.158 239.948 596.041 240.198C595.837 240.64 595.501 241.009 595.08 241.254C594.437 241.669 593.677 241.865 592.914 241.814C592.666 241.79 592.437 241.673 592.272 241.487C592.107 241.301 592.019 241.059 592.026 240.81C592.079 240.42 592.258 240.324 592.258 240.335Z" fill="white"/>
<path d="M609.99 239.786C609.99 239.786 609.504 239.712 608.637 239.786C607.403 239.867 606.196 240.19 605.087 240.737C603.454 241.574 601.922 242.595 600.522 243.78C598.817 245.281 596.874 246.488 594.773 247.352C592.607 248.097 590.269 248.185 588.053 247.605C586.248 247.129 584.589 246.214 583.224 244.942C582.299 244.065 581.53 243.035 580.952 241.899C580.732 241.501 580.548 241.083 580.402 240.652C580.463 240.75 580.516 240.853 580.561 240.959C580.656 241.17 580.814 241.476 581.026 241.857C581.645 242.925 582.425 243.891 583.34 244.72C584.696 245.954 586.331 246.839 588.106 247.299C590.284 247.846 592.574 247.751 594.699 247.024C596.773 246.172 598.693 244.987 600.384 243.516C601.799 242.325 603.353 241.31 605.013 240.494C606.142 239.946 607.373 239.64 608.627 239.595C609.087 239.601 609.545 239.664 609.99 239.786Z" fill="white"/>
<path d="M609.8 249.687C609.194 249.073 608.388 248.697 607.528 248.63C605.44 248.612 603.361 248.918 601.367 249.539C599.347 250.084 597.38 250.812 595.492 251.716C594.763 252.064 594.193 252.371 593.791 252.572C593.594 252.697 593.385 252.803 593.167 252.889C593.352 252.745 593.546 252.614 593.749 252.498C594.129 252.265 594.7 251.927 595.418 251.568C597.295 250.609 599.268 249.851 601.304 249.306C602.423 249 603.559 248.76 604.707 248.588C605.644 248.417 606.601 248.377 607.549 248.472C608.196 248.541 608.811 248.79 609.324 249.19C609.506 249.332 609.666 249.499 609.8 249.687Z" fill="white"/>
<path d="M596.084 256.693C596.405 256.358 596.759 256.057 597.141 255.794C598.082 255.103 599.165 254.626 600.311 254.4C600.885 254.283 601.477 254.295 602.046 254.436C602.614 254.576 603.144 254.842 603.597 255.213C603.866 255.442 604.092 255.718 604.263 256.027C604.326 256.138 604.369 256.26 604.39 256.386C604.145 255.991 603.843 255.634 603.491 255.329C603.044 254.992 602.53 254.755 601.983 254.633C601.436 254.511 600.87 254.507 600.321 254.621C599.221 254.853 598.176 255.298 597.246 255.932C596.874 256.208 596.486 256.462 596.084 256.693Z" fill="white"/>
<path d="M610.856 233.815C610.809 233.867 610.756 233.913 610.697 233.953C610.592 234.027 610.433 234.143 610.211 234.28C609.954 234.462 609.663 234.591 609.355 234.661C608.94 234.734 608.513 234.709 608.109 234.587C607.21 234.386 606.207 233.931 605.076 233.53C603.85 233.114 602.592 232.799 601.314 232.589C598.973 232.25 596.61 232.091 594.245 232.114H592.131C591.868 232.141 591.602 232.141 591.339 232.114L592.131 232.051L594.245 231.977C596.619 231.902 598.996 232.04 601.346 232.389C602.641 232.593 603.915 232.919 605.15 233.361C606.291 233.762 607.263 234.227 608.151 234.418C608.482 234.537 608.836 234.579 609.186 234.541C609.536 234.502 609.872 234.384 610.169 234.196C610.392 234.058 610.621 233.931 610.856 233.815Z" fill="white"/>
<path d="M645.876 323.55V410.103C645.897 410.269 645.977 410.422 646.103 410.533C646.228 410.644 646.39 410.705 646.558 410.705C646.725 410.705 646.887 410.644 647.012 410.533C647.138 410.422 647.218 410.269 647.239 410.103V323.55C647.218 323.383 647.138 323.231 647.012 323.12C646.887 323.009 646.725 322.948 646.558 322.948C646.39 322.948 646.228 323.009 646.103 323.12C645.977 323.231 645.897 323.383 645.876 323.55Z" fill="#FFD118"/>
<path d="M651.434 391.03C651.434 391.995 651.148 392.939 650.611 393.742C650.075 394.545 649.313 395.171 648.421 395.54C647.529 395.91 646.547 396.006 645.6 395.818C644.653 395.63 643.783 395.165 643.1 394.482C642.418 393.799 641.953 392.929 641.764 391.982C641.576 391.035 641.673 390.054 642.042 389.162C642.412 388.27 643.037 387.507 643.84 386.971C644.643 386.434 645.587 386.148 646.552 386.148C647.847 386.148 649.089 386.662 650.004 387.578C650.92 388.493 651.434 389.735 651.434 391.03Z" fill="#FFD118"/>
<path d="M645.199 393.555C645.199 393.555 641.638 397.117 640.571 407.546C639.503 417.976 639.271 423.185 639.271 423.185L648.866 423.777V416.317C648.866 416.665 650.768 421.885 650.768 421.885L658.355 419.392C658.355 419.392 655.66 391.664 645.199 393.555Z" fill="#FFD118"/>
<path d="M595.292 330.629H432.35V389.371H595.292V330.629Z" fill="#263238"/>
<path d="M652.522 320.527H373.819V330.64H652.522V320.527Z" fill="#263238"/>
<path opacity="0.3" d="M432.35 372.707C432.35 372.707 481.845 354.954 513.821 348.403C545.796 341.852 595.292 344.028 595.292 344.028V330.661H432.35V372.707Z" fill="black"/>
<path opacity="0.3" d="M474.628 320.527H373.819V330.64H474.628V320.527Z" fill="black"/>
<path d="M650.504 330.661C650.504 330.82 588.529 330.946 512.077 330.946C435.625 330.946 373.65 330.82 373.65 330.661C373.65 330.503 435.604 330.386 512.077 330.386C588.55 330.386 650.504 330.481 650.504 330.661Z" fill="#455A64"/>
<path d="M474.469 330.714C474.089 327.301 474.089 323.856 474.469 320.443C474.836 323.857 474.836 327.3 474.469 330.714Z" fill="#455A64"/>
<path d="M497.706 389.381C497.558 389.381 497.432 377.916 497.432 363.778C497.432 349.639 497.558 338.185 497.706 338.185C497.854 338.185 497.992 349.639 497.992 363.778C497.992 377.916 497.865 389.381 497.706 389.381Z" fill="#455A64"/>
<path d="M261.99 461.522L280.725 453.956L295.033 416.581L314.106 426.408C314.106 426.408 312.267 430.096 308.326 439.236C306.794 442.755 301.753 452.593 299.703 457.379C297.806 461.805 294.681 465.595 290.698 468.301C286.715 471.007 282.041 472.515 277.227 472.649L259.644 473.103L261.99 461.522Z" fill="#FFBF9D"/>
<path d="M252.681 454.294L249.891 451.314C249.349 450.959 248.711 450.778 248.063 450.796L239.103 451.071C238.266 451.152 237.458 451.42 236.739 451.855C236.021 452.29 235.409 452.882 234.95 453.586L231.685 459.134C231.685 459.134 229.497 462.927 229.772 463.857C229.894 464.243 230.155 464.57 230.505 464.775C230.854 464.98 231.267 465.048 231.663 464.967C231.663 464.967 231.98 466.721 232.562 467.08C232.898 467.249 233.265 467.349 233.641 467.372C234.017 467.396 234.394 467.343 234.749 467.217C234.903 467.55 235.154 467.829 235.469 468.017C235.783 468.206 236.147 468.295 236.514 468.274C236.671 468.259 236.826 468.231 236.979 468.189C238.035 467.862 238.521 465.801 238.521 465.801L243.065 464.967C243.065 464.967 249.595 469.331 251.899 472.184C254.203 475.037 260.226 472.86 260.226 472.86L262.477 462.082L252.681 454.294Z" fill="#FFBF9D"/>
<path d="M246.076 455.573C245.439 455.77 244.777 455.88 244.111 455.9C242.874 456.037 241.131 456.09 239.155 456.344L239.366 456.185C239.026 456.915 238.638 457.621 238.204 458.299C237.01 460.192 235.559 461.91 233.892 463.403C233.238 464.06 232.477 464.603 231.642 465.009C231.642 464.935 232.434 464.301 233.618 463.107C235.172 461.562 236.55 459.85 237.728 458.003C238.161 457.295 238.552 456.598 238.88 455.89L238.943 455.752H239.091C241.11 455.53 242.853 455.551 244.089 455.509C244.752 455.461 245.418 455.483 246.076 455.573Z" fill="#FF9A6C"/>
<path d="M246.277 459.852C245.748 460.11 245.174 460.261 244.586 460.296C243.127 460.498 241.644 460.448 240.201 460.148L240.529 459.968C240.339 460.522 240.12 461.065 239.874 461.596C239.057 463.282 237.91 464.787 236.503 466.023C235.953 466.568 235.299 466.996 234.58 467.281C235.101 466.734 235.651 466.216 236.228 465.727C237.531 464.46 238.603 462.977 239.398 461.342C239.642 460.837 239.858 460.319 240.043 459.789L240.127 459.556H240.36C242.31 459.921 244.3 460.021 246.277 459.852Z" fill="#FF9A6C"/>
<path d="M257.668 462.061L249.669 458.341C248.596 457.744 247.407 457.383 246.182 457.284C244.872 457.399 243.609 457.823 242.494 458.521L238.183 460.74C237.951 460.867 237.697 461.015 237.623 461.258C237.549 461.501 237.75 461.923 237.993 462.166C239.106 463.219 240.562 463.833 242.093 463.896C243.624 463.958 245.125 463.464 246.32 462.504C246.903 464.409 247.815 466.197 249.014 467.788C249.627 468.585 250.435 469.212 251.361 469.606C252.286 470 253.298 470.149 254.298 470.039" fill="#FFBF9D"/>
<path d="M254.276 470.144C254.21 470.177 254.138 470.198 254.065 470.208C253.85 470.261 253.63 470.289 253.41 470.292C252.57 470.295 251.743 470.092 251 469.7C249.85 469.099 248.875 468.211 248.168 467.122C247.291 465.724 246.582 464.227 246.055 462.663L246.457 462.758C245.815 463.297 245.072 463.703 244.273 463.954C243.473 464.204 242.631 464.293 241.797 464.216C240.889 464.154 240.004 463.906 239.197 463.487C238.784 463.268 238.397 463.003 238.045 462.695C237.855 462.537 237.681 462.36 237.527 462.166C237.428 462.046 237.356 461.904 237.318 461.753C237.28 461.601 237.275 461.443 237.306 461.289C237.34 461.163 237.4 461.046 237.482 460.944C237.564 460.842 237.665 460.758 237.781 460.697C237.971 460.581 238.13 460.507 238.299 460.412L239.292 459.905L241.247 458.848C242.461 458.137 243.756 457.573 245.104 457.168C246.398 456.935 247.733 457.139 248.897 457.749C249.954 458.235 251.011 458.721 251.856 459.155L256.083 461.268C256.614 461.507 257.126 461.786 257.615 462.103C257.056 461.937 256.512 461.725 255.988 461.469L251.655 459.556L248.676 458.225C247.601 457.674 246.374 457.499 245.189 457.728C243.888 458.135 242.64 458.691 241.469 459.387L239.525 460.444L238.531 460.962C238.193 461.131 237.834 461.3 237.813 461.469C237.792 461.638 238.056 462.05 238.383 462.314C238.706 462.595 239.061 462.836 239.44 463.033C240.179 463.416 240.988 463.646 241.818 463.709C243.362 463.859 244.903 463.396 246.108 462.42L246.383 462.187L246.499 462.526C246.991 464.063 247.654 465.541 248.475 466.932C249.122 467.987 250.023 468.862 251.095 469.479C252.07 469.999 253.174 470.23 254.276 470.144Z" fill="#FF9A6C"/>
<path d="M361.689 357.364C361.763 351.361 362.746 345.381 362.471 339.4C362.196 333.419 360.664 327.153 356.479 322.852C352.295 318.551 344.993 316.924 340.132 320.358L339.076 325.473C340.999 348.614 340.745 372.126 342.668 395.267C342.922 398.31 345.384 401.068 346.768 403.784C348.153 406.5 350.932 408.75 353.975 408.56C357.959 408.317 360.569 404.281 361.805 400.477C366.349 386.729 361.509 371.872 361.689 357.364Z" fill="#263238"/>
<path d="M347.254 326.244C346.453 324.719 345.423 323.326 344.201 322.112C343.584 321.509 342.839 321.053 342.021 320.778C341.203 320.504 340.333 320.418 339.477 320.527C339.074 320.577 338.69 320.73 338.363 320.97C338.036 321.211 337.775 321.531 337.607 321.901C337.343 322.662 337.913 323.687 338.716 323.613L338.885 323.761C340.682 325.353 342.51 326.906 344.37 328.421C344.813 328.835 345.334 329.158 345.902 329.372C346.187 329.476 346.496 329.497 346.794 329.434C347.091 329.37 347.364 329.224 347.582 329.013C348.248 328.273 347.762 327.1 347.254 326.244Z" fill="#FFD118"/>
<path d="M350.646 332.14C344.665 324.828 336.634 320.612 327.187 320.517C321.904 320.422 319.653 321.574 315.817 322.567C311.976 323.494 308.582 325.737 306.223 328.907C303.507 332.764 301.224 337.086 300.707 341.788C300.03 346.593 299.8 351.45 300.02 356.296C300.241 361.167 301.807 365.881 304.542 369.917L316.842 372.031C323.637 372.263 330.526 372.485 337.152 370.974C343.777 369.463 350.202 365.86 353.742 360.058C358.666 351.943 356.616 339.442 350.646 332.14Z" fill="#263238"/>
<path d="M339.71 332.056L323.31 325.536L319.02 326.033C309.383 326.033 302.726 336.705 302.663 344.504C302.599 353.19 302.853 363.778 304.227 370.171C307.006 383.031 317.964 384.098 317.964 384.098C317.964 384.098 317.742 390.956 317.657 395.267L342.775 393.46L344.032 336.462C343.994 335.32 343.529 334.234 342.729 333.418C341.929 332.602 340.851 332.116 339.71 332.056Z" fill="#FFBF9D"/>
<path d="M323.51 367.159C323.409 366.502 323.07 365.904 322.559 365.479C322.094 365.078 321.51 364.842 320.897 364.805C320.284 364.769 319.676 364.935 319.167 365.278C318.639 365.686 318.228 366.226 317.977 366.845C317.727 367.463 317.645 368.137 317.741 368.797C318.023 369.194 318.387 369.525 318.808 369.769C319.229 370.013 319.697 370.165 320.181 370.213C320.333 370.224 320.485 370.224 320.636 370.213C321.42 370.229 322.179 369.937 322.749 369.399C323.036 369.107 323.254 368.754 323.385 368.366C323.517 367.978 323.56 367.566 323.51 367.159Z" fill="#FF9A6C"/>
<path d="M307.005 355.483C307.021 355.917 307.208 356.328 307.524 356.626C307.84 356.924 308.261 357.087 308.696 357.078C308.908 357.082 309.12 357.044 309.318 356.966C309.515 356.888 309.696 356.771 309.848 356.623C310 356.474 310.122 356.297 310.205 356.101C310.288 355.906 310.332 355.695 310.333 355.483C310.312 355.048 310.122 354.639 309.805 354.342C309.488 354.044 309.067 353.881 308.632 353.887C308.42 353.883 308.209 353.921 308.012 353.999C307.815 354.078 307.635 354.194 307.483 354.343C307.332 354.492 307.211 354.669 307.129 354.865C307.047 355.06 307.005 355.27 307.005 355.483Z" fill="#263238"/>
<path d="M305.6 348.846C305.811 349.047 307.026 348.054 308.77 347.959C310.513 347.864 311.94 348.688 312.109 348.456C312.278 348.223 311.961 347.969 311.369 347.589C310.565 347.095 309.627 346.862 308.685 346.923C307.755 346.969 306.863 347.31 306.139 347.895C305.653 348.35 305.483 348.751 305.6 348.846Z" fill="#263238"/>
<path d="M317.096 362.89C316.137 362.638 315.149 362.514 314.158 362.52C313.704 362.52 313.26 362.436 313.165 362.119C313.108 361.652 313.188 361.178 313.397 360.756C313.767 359.625 314.158 358.442 314.56 357.195C316.166 352.144 317.307 347.991 317.096 347.927C316.885 347.864 315.426 351.911 313.82 356.973L312.763 360.544C312.503 361.111 312.455 361.752 312.626 362.351C312.699 362.509 312.808 362.647 312.944 362.755C313.079 362.863 313.238 362.939 313.408 362.975C313.665 363.03 313.928 363.051 314.19 363.038C315.161 363.103 316.136 363.054 317.096 362.89Z" fill="#263238"/>
<path d="M317.941 384.087C324.055 383.845 329.981 381.91 335.06 378.497C335.06 378.497 330.928 387.743 317.878 387.247L317.941 384.087Z" fill="#FF9A6C"/>
<path d="M322.433 363.831C322.147 363.831 322.242 365.775 320.657 367.244C319.072 368.713 316.991 368.617 316.991 368.892C316.991 369.167 317.477 369.241 318.343 369.22C319.486 369.175 320.576 368.725 321.418 367.952C322.225 367.213 322.713 366.19 322.781 365.099C322.803 364.285 322.57 363.82 322.433 363.831Z" fill="#263238"/>
<path d="M306.202 342.581C306.529 342.993 307.882 342.633 309.488 342.676C311.094 342.718 312.447 343.067 312.785 342.676C312.933 342.475 312.732 342.063 312.151 341.619C311.365 341.108 310.446 340.84 309.509 340.848C308.572 340.822 307.647 341.068 306.846 341.556C306.265 341.957 306.064 342.369 306.202 342.581Z" fill="#263238"/>
<path d="M326.543 355.039C326.552 355.473 326.391 355.893 326.095 356.211C325.799 356.528 325.391 356.718 324.958 356.74C324.746 356.76 324.533 356.738 324.33 356.675C324.128 356.612 323.94 356.509 323.777 356.372C323.615 356.235 323.482 356.068 323.385 355.878C323.288 355.689 323.23 355.483 323.214 355.271C323.205 354.838 323.364 354.418 323.657 354.099C323.951 353.78 324.356 353.587 324.789 353.559C325.001 353.539 325.216 353.562 325.42 353.625C325.624 353.689 325.813 353.793 325.977 353.931C326.14 354.068 326.274 354.237 326.371 354.428C326.469 354.618 326.527 354.826 326.543 355.039Z" fill="#263238"/>
<path d="M329.819 348.149C329.618 348.371 328.34 347.462 326.543 347.494C324.747 347.526 323.458 348.456 323.257 348.234C323.056 348.012 323.363 347.748 323.933 347.315C324.697 346.764 325.613 346.465 326.554 346.459C327.486 346.438 328.401 346.716 329.164 347.251C329.724 347.663 329.925 348.054 329.819 348.149Z" fill="#263238"/>
<path d="M328.741 342.422C328.403 342.834 327.008 342.422 325.349 342.422C323.69 342.422 322.274 342.749 321.947 342.327C321.799 342.126 322.021 341.714 322.623 341.27C323.458 340.781 324.413 340.536 325.381 340.562C326.342 340.551 327.285 340.819 328.097 341.334C328.699 341.798 328.9 342.221 328.741 342.422Z" fill="#263238"/>
<path d="M341.823 358.251C341.823 357.29 342.764 354.954 343.715 354.754C346.24 354.215 350.837 354.162 351.238 360.629C351.788 369.473 342.785 368.195 342.785 367.941C342.785 367.687 341.982 361.59 341.823 358.251Z" fill="#FFBF9D"/>
<path d="M344.994 364.559C344.994 364.559 345.152 364.665 345.416 364.76C345.789 364.912 346.206 364.912 346.579 364.76C347.487 364.359 348.185 362.827 348.132 361.231C348.106 360.472 347.911 359.728 347.561 359.054C347.462 358.782 347.298 358.538 347.082 358.345C346.866 358.151 346.606 358.014 346.325 357.945C346.146 357.909 345.961 357.938 345.801 358.024C345.641 358.111 345.516 358.251 345.448 358.42C345.342 358.674 345.448 358.853 345.364 358.864C345.279 358.875 345.163 358.727 345.216 358.357C345.251 358.135 345.363 357.933 345.533 357.786C345.646 357.686 345.778 357.61 345.922 357.563C346.065 357.515 346.217 357.498 346.367 357.511C346.736 357.556 347.086 357.696 347.383 357.919C347.679 358.141 347.912 358.438 348.058 358.779C348.48 359.522 348.716 360.356 348.745 361.21C348.798 362.996 347.984 364.718 346.737 365.162C346.504 365.246 346.255 365.278 346.008 365.254C345.762 365.23 345.523 365.152 345.311 365.024C344.994 364.781 344.994 364.581 344.994 364.559Z" fill="#FF9A6C"/>
<path d="M344.053 354.774L341.823 357.078C332.122 347.79 313.165 324.543 314.233 325.927C318.654 324.283 323.418 323.778 328.086 324.458C335.303 325.684 348.977 329.298 348.765 337.804C348.554 346.31 344.053 354.774 344.053 354.774Z" fill="#263238"/>
<path d="M356.902 352.851C356.873 352.678 356.827 352.508 356.764 352.344C356.603 351.863 356.402 351.396 356.162 350.949C355.246 349.312 353.984 347.895 352.463 346.796C350.222 345.186 347.72 343.975 345.067 343.214C342.108 342.253 338.779 341.502 335.504 340.044C332.414 338.757 329.485 337.115 326.775 335.152C324.559 333.547 322.493 331.743 320.604 329.763C319.337 328.423 318.148 327.012 317.043 325.536L316.156 324.31C316.057 324.162 315.943 324.024 315.817 323.898C315.891 324.06 315.98 324.216 316.082 324.363C316.261 324.659 316.525 325.092 316.895 325.631C317.953 327.16 319.115 328.615 320.372 329.984C324.543 334.519 329.648 338.096 335.334 340.467C338.482 341.66 341.688 342.693 344.94 343.563C347.581 344.283 350.082 345.444 352.337 346.997C353.841 348.054 355.111 349.41 356.067 350.981C356.616 352.133 356.849 352.851 356.902 352.851Z" fill="#455A64"/>
<path d="M354.324 354.215C354.353 353.553 354.237 352.893 353.986 352.281C353.318 350.591 352.159 349.14 350.657 348.117C348.41 346.67 345.894 345.689 343.26 345.233C340.108 344.601 337.036 343.623 334.099 342.316C331.174 340.982 328.427 339.289 325.92 337.276C323.881 335.625 322.005 333.781 320.319 331.77C319.171 330.407 318.112 328.97 317.149 327.47L316.399 326.233C316.322 326.085 316.226 325.946 316.114 325.821C316.173 325.978 316.243 326.13 316.325 326.276L317.001 327.565C317.901 329.105 318.911 330.578 320.024 331.971C321.689 334.035 323.562 335.922 325.613 337.603C328.135 339.656 330.908 341.379 333.866 342.728C336.829 344.051 339.936 345.026 343.123 345.634C345.709 346.065 348.186 346.999 350.414 348.382C351.887 349.351 353.047 350.728 353.753 352.344C354 352.949 354.191 353.575 354.324 354.215Z" fill="#455A64"/>
<path d="M343.756 369.758C343.756 369.695 344.507 369.6 345.817 369.251C347.654 368.721 349.346 367.778 350.762 366.493C352.838 364.551 354.414 362.137 355.359 359.456C356.566 356.188 357.216 352.741 357.282 349.259C357.322 347.459 357.177 345.66 356.849 343.891C355.962 339.439 353.872 335.317 350.804 331.971C349.001 330.056 347.012 328.325 344.866 326.804C344.866 326.804 345.046 326.867 345.363 327.058C345.68 327.248 346.134 327.501 346.694 327.903C348.299 329.004 349.78 330.276 351.111 331.696C353.104 333.801 354.716 336.236 355.877 338.893C356.549 340.468 357.062 342.107 357.409 343.785C357.749 345.593 357.901 347.43 357.863 349.269C357.8 352.817 357.124 356.328 355.866 359.646C354.866 362.39 353.208 364.846 351.037 366.8C349.555 368.088 347.787 369.005 345.88 369.473C345.361 369.591 344.835 369.676 344.306 369.727C344.124 369.752 343.94 369.762 343.756 369.758Z" fill="#455A64"/>
<path d="M355.011 478.503L302.726 486.1C283.082 491.659 262.392 493.286 240.761 491.384L319.453 528.093L351.048 528.579C351.048 528.579 360.664 528.579 362.344 520.189C364.024 511.799 365.895 486.248 365.895 486.248C365.895 486.248 359.65 480.838 355.011 478.503Z" fill="#263238"/>
<g opacity="0.3">
<path d="M354.852 500.514C355.717 505.75 356.028 511.063 355.782 516.364C357.388 514.601 358.571 512.495 359.241 510.207C359.911 507.918 360.051 505.506 359.65 503.156C359.195 500.577 358.117 497.735 359.47 495.484C360.379 493.973 362.777 492.24 362.429 490.518C362.429 490.518 360.315 490.518 358.424 490.444C356.892 490.38 353.711 490.285 353.711 490.285C355.079 493.572 355.375 497.207 354.556 500.672" fill="black"/>
</g>
<path d="M317.741 393.111L343.144 390.364L347.793 394.591L329.661 405.263L321.661 409.406L313.757 407.007L311.253 402.294L317.741 393.111Z" fill="#FFBF9D"/>
<path d="M283.494 424.041C283.494 424.041 291.461 408.761 293.427 405.422C296.787 399.726 303.064 396.504 303.064 396.504L317.741 393.112C317.741 393.112 316.219 400.508 325.349 400.973C336.973 401.618 344.19 390.48 344.19 390.48C344.19 390.48 357.441 391.844 361.097 393.376C364.753 394.908 375.109 399.251 376.631 413.009L380.181 435.485L352.179 437.598L352.559 467.524L340.661 477.256C340.661 477.256 306.498 489.017 304.31 489.788C303.254 490.158 303.529 475.639 301.088 463.191L296.48 452.001C294.615 447.531 293.512 442.781 293.215 437.947C293.036 434.777 293.12 432.347 293.12 432.347C293.12 432.347 285.935 429.884 283.494 424.041Z" fill="#455A64"/>
<path d="M305.557 478.059L352.506 463.973L352.179 437.62L376.081 435.802C376.081 435.802 374.179 449.454 373.894 456.45C373.492 466.52 368.61 480.595 365.44 483.575C362.27 486.555 304.342 489.81 304.342 489.81L305.557 478.059Z" fill="#FFBF9D"/>
<path d="M278.929 486.344C279.155 486.731 279.515 487.023 279.941 487.165C280.366 487.307 280.829 487.289 281.243 487.115C282.3 486.692 282.014 484.558 282.014 484.558L287.013 483.332C287.013 483.332 293.913 487.073 296.523 489.672C299.133 492.272 304.871 489.556 304.871 489.556L306.065 478.598L296.1 470.895C296.1 470.895 296.713 471.36 295.942 469.838C295.17 468.316 292.296 469.141 292.296 469.141C291.789 468.39 289.855 468.264 289.855 468.264L281.75 469.838C280.928 469.998 280.152 470.34 279.479 470.839C278.806 471.339 278.253 471.982 277.862 472.723L274.829 478.461C274.829 478.461 273.307 482.539 273.677 483.438C273.836 483.809 274.127 484.11 274.493 484.281C274.86 484.452 275.276 484.483 275.664 484.368C275.664 484.368 276.266 486.925 276.953 486.956C277.647 486.871 278.318 486.652 278.929 486.312V486.344Z" fill="#FFBF9D"/>
<path d="M295.72 477.256C295.72 477.34 294.663 477.319 292.888 477.531C290.627 477.819 288.416 478.412 286.315 479.295C285.162 479.788 284.049 480.371 282.987 481.039C282.046 481.662 281.053 482.201 280.789 482.951C280.732 483.113 280.718 483.286 280.747 483.454C280.777 483.623 280.849 483.781 280.958 483.913C281.125 484.132 281.353 484.298 281.613 484.389C282.057 484.526 282.321 484.389 282.342 484.389C282.363 484.389 282.099 484.632 281.56 484.536C281.241 484.465 280.953 484.295 280.736 484.05C280.581 483.883 280.471 483.678 280.42 483.456C280.368 483.233 280.375 483.001 280.44 482.782C280.621 482.29 280.945 481.863 281.37 481.557C281.793 481.229 282.237 480.901 282.733 480.574C285.76 478.591 289.238 477.403 292.846 477.118C293.805 477.009 294.776 477.055 295.72 477.256Z" fill="#FF9A6C"/>
<path d="M296.702 482.423C296.702 482.571 293.363 482.698 289.306 483.247C285.248 483.797 281.993 484.558 281.909 484.41C282.579 484.087 283.29 483.856 284.022 483.723C285.735 483.292 287.47 482.961 289.221 482.73C290.973 482.492 292.737 482.354 294.504 482.317C295.238 482.252 295.978 482.288 296.702 482.423Z" fill="#FF9A6C"/>
<path d="M278.96 486.132C278.875 485.853 278.818 485.567 278.791 485.276C278.682 484.481 278.619 483.68 278.601 482.878C278.592 482.319 278.627 481.761 278.707 481.208C278.805 480.557 279.031 479.932 279.372 479.369C280.075 478.067 281.031 476.917 282.183 475.988C283.323 475.056 284.59 474.291 285.945 473.716C287.069 473.299 288.24 473.026 289.432 472.902C290.489 472.786 291.25 472.754 291.82 472.723C292.111 472.68 292.407 472.68 292.697 472.723C291.652 472.962 290.594 473.138 289.527 473.251C288.377 473.42 287.25 473.718 286.167 474.139C284.867 474.719 283.651 475.473 282.553 476.379C281.458 477.26 280.534 478.334 279.827 479.549C279.263 480.55 278.981 481.686 279.013 482.835C278.929 484.875 279.077 486.132 278.96 486.132Z" fill="#FF9A6C"/>
<path d="M289.623 470.398C289.623 470.482 288.408 470.609 286.453 470.979C284.498 471.349 281.592 471.782 280.113 474.509C278.603 476.576 277.383 478.841 276.488 481.24C276.209 482.259 276.029 483.303 275.949 484.357C275.851 484.079 275.811 483.784 275.833 483.49C275.814 482.695 275.914 481.9 276.129 481.134C276.933 478.651 278.132 476.314 279.679 474.213C280.091 473.576 280.585 472.997 281.148 472.49C281.692 472.024 282.32 471.665 282.997 471.434C284.109 471.048 285.256 470.776 286.421 470.62C287.475 470.412 288.551 470.338 289.623 470.398Z" fill="#FF9A6C"/>
<path d="M294.557 488.108C294.374 488.012 294.201 487.899 294.039 487.77L292.591 486.787C290.767 485.585 288.876 484.488 286.928 483.501H287.044L282.056 484.758L282.215 484.526C282.262 484.94 282.262 485.358 282.215 485.773C282.184 486.23 282.018 486.667 281.739 487.03C281.566 487.213 281.341 487.338 281.095 487.389C280.868 487.469 280.627 487.501 280.387 487.485C279.89 487.449 279.423 487.239 279.066 486.893C278.979 486.803 278.898 486.707 278.823 486.608V486.534L279.119 486.618L278.96 486.692C278.755 486.8 278.543 486.895 278.326 486.977C278.105 487.064 277.879 487.138 277.65 487.199C277.529 487.235 277.405 487.26 277.28 487.273C277.12 487.299 276.955 487.281 276.804 487.22C276.563 487.067 276.372 486.847 276.255 486.586C276.138 486.368 276.035 486.142 275.949 485.91C275.771 485.453 275.626 484.983 275.515 484.505L275.822 484.684C275.485 484.788 275.126 484.796 274.785 484.708C274.444 484.621 274.133 484.441 273.888 484.188C273.633 483.918 273.483 483.565 273.465 483.194C273.465 482.861 273.496 482.528 273.56 482.201C273.843 480.929 274.217 479.679 274.681 478.46L276.297 475.396L277.354 473.462C277.667 472.794 278.05 472.16 278.495 471.571C278.98 471.005 279.572 470.541 280.239 470.208C280.889 469.909 281.58 469.71 282.289 469.616L289.918 468.147H289.981C290.451 468.183 290.915 468.268 291.366 468.401C291.845 468.507 292.278 468.762 292.602 469.13L292.306 469.066C292.709 468.844 293.159 468.722 293.619 468.71C294.079 468.699 294.535 468.8 294.948 469.003C295.662 469.454 296.182 470.155 296.406 470.968L296.332 470.873L303.201 476.157L305.05 477.615C305.273 477.777 305.481 477.957 305.673 478.154C305.431 478.029 305.201 477.88 304.986 477.71L303.074 476.326L296.1 471.19H296.047V471.116C295.85 470.409 295.394 469.801 294.768 469.415C294.42 469.248 294.036 469.167 293.65 469.18C293.263 469.193 292.886 469.299 292.549 469.489L292.37 469.574L292.253 469.426C291.985 469.147 291.639 468.956 291.26 468.876C290.839 468.76 290.407 468.685 289.971 468.654H290.034L282.405 470.155C281.739 470.241 281.09 470.43 280.482 470.715C279.882 471.012 279.35 471.429 278.918 471.941C278.502 472.503 278.147 473.109 277.861 473.748L276.804 475.681C276.244 476.738 275.748 477.795 275.188 478.746C274.752 479.939 274.399 481.16 274.131 482.402C274.07 482.69 274.038 482.984 274.036 483.279C274.05 483.533 274.155 483.773 274.332 483.955C274.514 484.137 274.741 484.267 274.99 484.33C275.24 484.393 275.501 484.388 275.748 484.315L276.001 484.251V484.494C276.118 484.949 276.255 485.413 276.414 485.847C276.529 486.243 276.74 486.606 277.026 486.903C277.095 486.924 277.169 486.924 277.238 486.903L277.544 486.84C277.758 486.792 277.966 486.725 278.168 486.639C278.368 486.565 278.569 486.47 278.77 486.375L278.918 486.312L279.224 486.396V486.449C279.282 486.531 279.345 486.609 279.415 486.681C279.611 486.891 279.864 487.041 280.143 487.112C280.422 487.183 280.716 487.173 280.989 487.083C281.158 487.054 281.313 486.973 281.433 486.851C281.805 486.213 281.944 485.466 281.824 484.737V484.547H281.993L287.002 483.363H287.065C289.012 484.377 290.887 485.525 292.676 486.798C293.299 487.252 293.733 487.611 294.081 487.854C294.246 487.928 294.405 488.012 294.557 488.108Z" fill="#FF9A6C"/>
<path d="M270.147 494.892C270.147 494.892 237.02 484.484 226.622 481.155C208.658 475.343 196.971 481.219 193.273 487.622C188.475 495.938 199.983 512.158 204.421 515.889C217.555 526.931 240.074 528.421 240.074 528.421L321.037 528.273L297.441 496.171L270.147 494.892Z" fill="#263238"/>
<path d="M275.114 509.918C261.622 511.489 247.953 509.628 235.372 504.508C233.225 503.538 231.015 502.715 228.757 502.046C226.524 501.483 224.21 501.318 221.92 501.56C221.011 501.583 220.116 501.788 219.289 502.164C218.461 502.54 217.717 503.078 217.102 503.747C215.485 505.86 216.309 508.904 217.207 511.419C218.264 514.377 219.321 517.4 221.434 519.767C223.833 522.525 227.32 524.11 230.817 525.209C237.654 527.322 244.871 527.988 252.036 528.262L276.636 526.92L275.114 509.918Z" fill="#E0E0E0"/>
<path d="M227.605 502.056C227.766 502.255 227.892 502.48 227.975 502.722C228.26 503.353 228.48 504.012 228.63 504.688C229.161 506.936 229.068 509.287 228.36 511.486C227.652 513.686 226.357 515.65 224.614 517.167C224.096 517.622 223.537 518.028 222.945 518.382C222.512 518.625 222.269 518.731 222.247 518.699C222.226 518.668 223.135 518.086 224.361 516.892C225.969 515.355 227.168 513.44 227.849 511.321C228.53 509.203 228.671 506.948 228.26 504.762C227.964 503.071 227.52 502.088 227.605 502.056Z" fill="#263238"/>
<path d="M354.703 492.863C352.78 487.411 352.463 479.401 340.597 475.555C328.73 471.708 319.769 479.084 313.672 481.641C307.575 484.198 274.257 502.479 274.257 502.479C274.257 502.479 267.981 513.67 269.767 518.615C271.552 523.56 279.668 528.442 279.668 528.442H316.937C326.553 528.442 344.411 528.115 344.411 528.115C346.802 524.195 348.945 520.13 350.825 515.941L351.142 514.335C351.174 513.057 356.616 498.316 354.703 492.863Z" fill="#263238"/>
<path d="M334.056 521.172C334.008 521.361 333.914 521.535 333.781 521.679C333.42 522.098 333.008 522.471 332.556 522.789C330.892 523.936 329.123 524.923 327.272 525.737C326.008 526.326 324.71 526.838 323.384 527.269C321.849 527.752 320.276 528.106 318.681 528.326C315.044 528.688 311.388 528.829 307.734 528.749C299.988 528.875 292.94 529.171 287.868 529.108C285.322 529.108 283.261 528.992 281.845 528.844C281.299 528.796 280.756 528.718 280.218 528.611C280.027 528.588 279.84 528.546 279.658 528.484C279.658 528.432 280.44 528.569 281.856 528.643C283.272 528.717 285.332 528.77 287.868 528.749C292.951 528.749 299.967 528.358 307.734 528.231C311.37 528.309 315.007 528.182 318.629 527.85C320.194 527.658 321.742 527.34 323.257 526.899C324.575 526.493 325.866 526.006 327.124 525.441C328.962 524.668 330.73 523.738 332.408 522.662C332.864 522.357 333.286 522.002 333.665 521.605C333.961 521.352 334.025 521.161 334.056 521.172Z" fill="#263238"/>
<path d="M279.668 528.442L279.172 528.178C278.855 527.998 278.39 527.702 277.788 527.311C276.035 526.168 274.394 524.862 272.885 523.412C271.791 522.364 270.859 521.161 270.116 519.841C269.357 518.188 269.164 516.331 269.567 514.557C270.473 510.309 271.993 506.215 274.079 502.405V502.352C280.186 498.992 287.192 495.177 294.843 491.067C298.668 489.017 302.652 486.893 306.794 484.727C308.907 483.67 311.021 482.613 313.134 481.557C315.247 480.5 317.414 479.443 319.601 478.302C322.623 476.646 325.864 475.426 329.227 474.678C330.88 474.348 332.562 474.196 334.247 474.223C335.895 474.273 337.532 474.507 339.129 474.921C342.223 475.683 345.129 477.071 347.667 478.999C348.847 479.977 349.891 481.107 350.773 482.36C351.584 483.595 352.254 484.917 352.77 486.301C353.299 487.654 353.669 489.017 354.049 490.348C354.485 491.642 354.838 492.962 355.106 494.3C355.272 496.857 355.058 499.425 354.472 501.919C353.996 504.297 353.415 506.516 352.813 508.576C352.517 509.633 352.221 510.616 351.946 511.577C351.672 512.539 351.354 513.49 351.207 514.335C351.08 514.938 350.985 515.392 350.879 515.931C349.861 519.196 348.423 522.315 346.599 525.209C345.953 526.243 345.191 527.2 344.327 528.062L344.465 527.871C344.581 527.734 344.729 527.565 344.909 527.333C345.469 526.628 345.991 525.895 346.473 525.135C348.233 522.224 349.621 519.103 350.604 515.846C351.207 515.339 351.09 514.842 350.911 514.24C351.095 513.276 351.335 512.323 351.629 511.387L352.485 508.397C353.056 506.283 353.626 504.106 354.091 501.75C354.654 499.295 354.854 496.771 354.683 494.258C354.405 492.946 354.052 491.651 353.626 490.38C353.235 489.049 352.855 487.696 352.337 486.375C351.833 485.023 351.177 483.733 350.382 482.529C349.525 481.317 348.509 480.226 347.36 479.285C343.56 476.436 338.982 474.815 334.236 474.635C332.59 474.608 330.946 474.76 329.333 475.09C326.009 475.827 322.807 477.033 319.823 478.672C317.709 479.729 315.596 480.997 313.324 481.937C311.052 482.877 309.097 483.998 306.984 485.107C302.852 487.22 298.858 489.334 295.033 491.447L274.237 502.659L274.311 502.574C272.231 506.341 270.704 510.387 269.778 514.589C269.361 516.302 269.528 518.106 270.253 519.714C270.965 521.022 271.87 522.216 272.937 523.254C274.419 524.715 276.028 526.041 277.745 527.216L279.098 528.125C279.478 528.326 279.668 528.442 279.668 528.442Z" fill="#263238"/>
<path d="M340.322 514.61C340.322 514.61 351.428 515.941 350.445 521.373C349.463 526.804 345.828 528.632 345.828 528.632L315.648 528.696C315.648 528.696 333.665 527.449 340.322 514.61Z" fill="#E0E0E0"/>
<path d="M341.401 511.979C341.398 512.508 341.283 513.03 341.063 513.511C340.654 514.726 340.047 515.865 339.266 516.882C338.214 518.364 336.742 519.498 335.04 520.136C336.441 519.085 337.727 517.888 338.875 516.565C339.844 515.11 340.689 513.575 341.401 511.979Z" fill="#263238"/>
<path d="M337.596 514.103C337.614 515.466 337.248 516.806 336.539 517.97C335.997 519.205 335.167 520.292 334.119 521.14C334.003 521.045 335.092 519.64 336.074 517.706C337.057 515.772 337.406 514.082 337.596 514.103Z" fill="#263238"/>
<path d="M351.714 527.121C351.629 527.121 352.348 525.705 353.214 523.37C355.489 517.271 356.24 510.709 355.402 504.254C355.074 501.792 354.694 500.281 354.778 500.26C354.945 500.594 355.066 500.95 355.137 501.317C355.399 502.273 355.607 503.243 355.761 504.223C356.818 510.734 356.058 517.411 353.563 523.518C353.186 524.418 352.759 525.297 352.284 526.149C352.133 526.495 351.942 526.821 351.714 527.121Z" fill="#455A64"/>
<g opacity="0.3">
<path d="M345.437 511.683C345.352 510.954 345.067 510.087 344.38 509.939C343.493 509.76 342.89 510.774 342.542 511.598C338.653 520.443 326.089 527.343 316.462 528.263C321.131 528.252 325.792 527.871 330.4 527.121C334.33 526.533 338.015 524.848 341.03 522.261C342.53 520.956 343.708 519.323 344.472 517.488C345.237 515.653 345.567 513.666 345.437 511.683Z" fill="black"/>
</g>
<path d="M271.912 499.647C270.072 499.13 268.282 498.448 266.565 497.608C264.78 496.932 263.061 496.093 261.43 495.103C263.268 495.623 265.057 496.302 266.777 497.132C268.562 497.812 270.281 498.654 271.912 499.647Z" fill="#263238"/>
<g opacity="0.2">
<path d="M282.648 494.977C268.277 492.229 253.853 489.788 239.376 487.654L228.598 491.056C231.62 496.678 237.591 500.26 243.793 501.74C249.996 503.219 256.474 502.87 262.814 502.289C269.809 501.644 276.995 500.662 283.081 497.153C283.546 496.889 284.074 496.488 284.011 495.949C283.948 495.41 283.271 495.093 282.648 494.977Z" fill="black"/>
</g>
<path d="M211.913 452.181L230.025 492.229C230.391 493.045 230.984 493.739 231.734 494.228C232.483 494.717 233.357 494.981 234.252 494.987L287.086 495.674L293.743 492.092L283.314 491.331L267.083 452.381C266.83 451.775 266.405 451.257 265.86 450.891C265.316 450.524 264.675 450.326 264.019 450.321L213.414 449.94C213.144 449.931 212.876 449.99 212.635 450.113C212.395 450.236 212.189 450.418 212.039 450.642C211.889 450.867 211.798 451.126 211.776 451.395C211.754 451.664 211.801 451.935 211.913 452.181Z" fill="#E0E0E0"/>
<path d="M211.913 452.181C211.827 452.032 211.773 451.866 211.754 451.695C211.721 451.441 211.749 451.183 211.835 450.942C211.921 450.701 212.064 450.485 212.251 450.31C212.54 450.042 212.914 449.885 213.308 449.866H217.947L239.133 449.94L253.864 450.014L262.095 450.067H264.209C264.991 450.124 265.734 450.435 266.322 450.955C266.889 451.487 267.308 452.157 267.537 452.899L268.404 455.013C273.022 466.076 278.125 478.313 283.536 491.247L283.282 491.067L293.352 491.807H293.712L294.768 491.881L293.87 492.367L287.213 495.949H287.139H287.065L247.016 495.399L238.077 495.273C236.618 495.273 235.224 495.273 233.776 495.188C233.053 495.103 232.357 494.86 231.738 494.476C231.12 494.093 230.592 493.578 230.194 492.969C227.837 488.013 225.872 483.459 223.959 479.232L215.104 459.43C214.048 457.115 213.287 455.308 212.737 454.051C212.473 453.459 212.283 452.994 212.135 452.656C211.987 452.318 211.945 452.17 211.945 452.17C212.035 452.32 212.116 452.475 212.188 452.635L212.843 454.009C213.414 455.245 214.238 457.041 215.305 459.292L224.329 479.031C226.242 483.184 228.292 487.855 230.595 492.673C230.954 493.223 231.43 493.686 231.989 494.029C232.548 494.373 233.176 494.588 233.829 494.66C235.181 494.723 236.65 494.712 238.056 494.734L246.995 494.839L287.044 495.325H286.896L293.553 491.733L293.68 492.293H293.321L283.25 491.564H283.071L282.997 491.405C277.618 478.45 272.525 466.213 267.918 455.139L267.062 453.079C266.873 452.407 266.508 451.797 266.005 451.314C265.503 450.861 264.863 450.589 264.188 450.543H262.074L253.843 450.469L239.123 450.321L217.915 450.067H214.597H213.287C213.077 450.075 212.872 450.125 212.683 450.215C212.493 450.305 212.324 450.432 212.186 450.589C212.048 450.747 211.943 450.93 211.878 451.129C211.812 451.329 211.789 451.539 211.807 451.747C211.835 451.894 211.87 452.038 211.913 452.181Z" fill="#263238"/>
<path d="M281.719 495.6C281.62 495.462 281.539 495.313 281.476 495.156L280.873 493.867C280.345 492.662 279.627 491.035 278.76 489.07C276.995 485.001 274.597 479.38 272.018 473.124C269.44 466.869 267.158 461.194 265.583 457.063C264.791 454.949 264.167 453.311 263.766 452.138C263.575 451.599 263.427 451.156 263.301 450.786C263.241 450.629 263.199 450.466 263.174 450.3C263.271 450.437 263.349 450.586 263.406 450.744L263.956 452.064C264.452 453.29 265.118 454.928 265.921 456.925C267.633 461.089 269.947 466.71 272.494 472.934C275.04 479.158 277.386 484.758 279.098 488.922L281.074 493.783C281.275 494.321 281.444 494.755 281.581 495.114C281.655 495.267 281.701 495.431 281.719 495.6Z" fill="#263238"/>
<path d="M248.961 471.592C248.963 472.107 248.812 472.611 248.527 473.04C248.242 473.469 247.836 473.804 247.361 474.002C246.885 474.2 246.362 474.252 245.857 474.153C245.351 474.053 244.887 473.805 244.523 473.441C244.159 473.076 243.911 472.612 243.811 472.107C243.711 471.602 243.764 471.078 243.962 470.603C244.16 470.127 244.494 469.722 244.924 469.437C245.353 469.152 245.857 469.001 246.372 469.003C247.058 469.003 247.717 469.276 248.202 469.761C248.688 470.247 248.961 470.905 248.961 471.592Z" fill="white"/>
<path d="M300.369 407.165C300.453 407.165 299.692 408.634 298.625 411.001C295.832 417.18 294.007 423.752 293.215 430.487C292.898 433.076 292.813 434.713 292.718 434.713C292.662 434.335 292.662 433.95 292.718 433.572C292.718 432.843 292.718 431.786 292.866 430.476C293.463 423.657 295.319 417.007 298.34 410.864C298.921 409.691 299.397 408.75 299.809 408.138C299.955 407.792 300.143 407.466 300.369 407.165Z" fill="#263238"/>
<path d="M380.181 435.485C379.992 435.542 379.797 435.574 379.6 435.58L377.92 435.738L371.643 436.267L350.181 437.883H349.907V437.609C349.727 434.756 349.537 431.744 349.347 428.659C349.04 423.269 348.776 418.092 348.691 413.453C348.418 409.274 349.369 405.106 351.428 401.459C352.842 399 354.928 396.995 357.441 395.679C358.119 395.339 358.826 395.06 359.554 394.844C359.807 394.765 360.065 394.702 360.326 394.654C360.326 394.739 359.269 394.961 357.525 395.869C355.102 397.23 353.102 399.234 351.745 401.66C349.787 405.27 348.91 409.368 349.22 413.463C349.325 418.123 349.6 423.259 349.907 428.648C350.097 431.734 350.276 434.745 350.456 437.588L350.16 437.334L371.643 435.918L377.983 435.548L379.663 435.485H380.181Z" fill="#263238"/>
<path d="M327.526 453.787C327.2 453.724 326.887 453.609 326.596 453.449C326.233 453.296 325.88 453.12 325.54 452.92C325.084 452.675 324.643 452.403 324.219 452.107C323.095 451.348 322.056 450.47 321.123 449.486C319.993 448.267 319.001 446.928 318.164 445.492C317.357 444.04 316.715 442.501 316.251 440.906C315.883 439.602 315.657 438.263 315.575 436.911C315.544 436.394 315.544 435.875 315.575 435.358C315.577 434.966 315.605 434.574 315.66 434.185C315.669 433.85 315.733 433.518 315.85 433.203C315.955 433.203 315.776 434.629 315.998 436.88C316.13 438.194 316.389 439.493 316.769 440.758C317.255 442.305 317.896 443.799 318.682 445.217C319.491 446.616 320.443 447.926 321.524 449.127C322.423 450.1 323.41 450.988 324.472 451.779C326.269 453.121 327.579 453.692 327.526 453.787Z" fill="#263238"/>
<defs>
<filter id="filter0_d_60_2851" x="-4" y="0" width="1448" height="619" filterUnits="userSpaceOnUse" color-interpolation-filters="sRGB">
<feFlood flood-opacity="0" result="BackgroundImageFix"/>
<feColorMatrix in="SourceAlpha" type="matrix" values="0 0 0 0 0 0 0 0 0 0 0 0 0 0 0 0 0 0 127 0" result="hardAlpha"/>
<feOffset dy="4"/>
<feGaussianBlur stdDeviation="2"/>
<feComposite in2="hardAlpha" operator="out"/>
<feColorMatrix type="matrix" values="0 0 0 0 0 0 0 0 0 0 0 0 0 0 0 0 0 0 0.25 0"/>
<feBlend mode="normal" in2="BackgroundImageFix" result="effect1_dropShadow_60_2851"/>
<feBlend mode="normal" in="SourceGraphic" in2="effect1_dropShadow_60_2851" result="shape"/>
</filter>
</defs>
</svg>
